<svg xmlns="http://www.w3.org/2000/svg" width="50" height="50" viewBox="0 0 499 500" version="1.1"><path d="M 233.910 1.386 C 233.685 1.590, 229.234 2.075, 224.021 2.462 C 218.807 2.848, 214.244 3.349, 213.879 3.575 C 213.514 3.800, 211.705 4.182, 209.858 4.424 C 203.471 5.260, 196.887 6.604, 189.750 8.528 C 187.432 9.153, 184.223 9.855, 180.250 10.607 C 178.463 10.946, 177 11.649, 177 12.170 C 177 12.692, 176.642 12.897, 176.204 12.626 C 175.485 12.182, 168.493 14.225, 162 16.778 C 160.625 17.318, 159.158 17.805, 158.740 17.860 C 158.321 17.915, 156.638 18.653, 155 19.500 C 153.362 20.347, 151.785 21.020, 151.497 20.994 C 150.270 20.886, 121 36.206, 121 36.957 C 121 37.411, 119.979 38.040, 118.730 38.353 C 117.482 38.666, 115.546 39.728, 114.429 40.711 C 113.312 41.695, 111.296 43.135, 109.949 43.912 C 94.844 52.618, 64.764 81.259, 50.155 100.846 C 24.025 135.881, 7.194 177.378, 1.827 220 C 0.132 233.464, 0.119 267.438, 1.805 281 C 4.392 301.810, 11.648 328.671, 19.905 348 C 27.059 364.750, 43.548 392.512, 53.706 404.911 C 68.595 423.085, 82.934 437.036, 99.564 449.527 C 105.769 454.187, 111.045 458, 111.290 458 C 111.535 458, 114.832 460.078, 118.618 462.617 C 130.545 470.617, 162.713 485.626, 171.976 487.512 C 172.814 487.683, 174.749 488.306, 176.276 488.896 C 177.803 489.487, 180.053 490.179, 181.276 490.434 C 182.499 490.689, 184.400 491.143, 185.500 491.442 C 189.870 492.633, 208.591 496.746, 210 496.825 C 210.825 496.871, 213.075 497.133, 215 497.406 C 226.484 499.040, 232.453 499.365, 250 499.310 C 260.725 499.276, 271.750 498.932, 274.500 498.545 C 282.745 497.383, 287.347 496.926, 290.250 496.980 C 291.762 497.009, 293 496.687, 293 496.266 C 293 495.845, 294.012 495.458, 295.250 495.406 C 298.055 495.288, 303.276 494.257, 308.500 492.788 C 310.700 492.169, 312.950 491.538, 313.500 491.384 C 314.050 491.231, 315.642 490.865, 317.037 490.572 C 318.432 490.278, 322.257 489.111, 325.537 487.977 C 328.817 486.843, 334.200 484.987, 337.500 483.853 C 340.800 482.718, 344.733 481.153, 346.240 480.375 C 347.746 479.596, 349.211 478.972, 349.494 478.988 C 350.695 479.054, 369.282 469.262, 378.500 463.708 C 412.306 443.336, 441.925 413.845, 462.569 380 C 482.850 346.750, 497.089 301.310, 498.134 266.500 C 498.284 261.500, 498.284 261.500, 499.002 265.500 C 499.408 267.759, 499.739 260.796, 499.763 249.500 C 499.787 237.960, 499.453 230.346, 498.973 231.500 C 498.141 233.500, 498.141 233.500, 498.062 231.500 C 497.477 216.595, 492.276 190.847, 486.008 171.831 C 476.931 144.289, 464.310 120.921, 444.782 95.500 C 438.876 87.811, 418.037 66.381, 409.776 59.500 C 401.145 52.311, 387.033 41.979, 384 40.628 C 382.625 40.016, 380.677 38.769, 379.670 37.859 C 377.214 35.636, 344.289 19.295, 340.500 18.418 C 338.850 18.037, 337.050 17.396, 336.500 16.994 C 335.560 16.309, 326.346 13.112, 323.706 12.556 C 323.043 12.416, 321.825 12.021, 321 11.678 C 320.175 11.334, 317.475 10.579, 315 9.998 C 312.525 9.418, 309.600 8.696, 308.500 8.393 C 307.400 8.090, 305.600 7.661, 304.500 7.439 C 303.400 7.217, 300.250 6.556, 297.500 5.970 C 290.726 4.526, 287.283 3.963, 282.193 3.467 C 279.825 3.237, 277.462 2.785, 276.943 2.465 C 275.905 1.823, 234.570 0.787, 233.910 1.386 M 219.048 24.530 C 169.369 32.077, 124.303 54.556, 89.935 88.933 C 48.894 129.983, 27.249 177.254, 22.857 235.422 C 16.872 314.682, 54.286 391.898, 121.122 438.224 C 143.407 453.670, 166.566 464.169, 193.427 471.001 C 261.355 488.279, 333.690 473.305, 388.401 430.639 C 435.653 393.790, 466.149 340.967, 474.505 281.500 C 475.936 271.316, 476.815 231.130, 475.648 229.238 C 475.398 228.832, 474.658 224, 474.004 218.500 C 466.472 155.113, 428.524 95.688, 372 58.766 C 347.555 42.798, 314.884 30.240, 285.222 25.411 C 271.394 23.160, 231.559 22.629, 219.048 24.530 M 245.250 27.735 C 247.863 27.941, 252.137 27.941, 254.750 27.735 C 257.363 27.529, 255.225 27.360, 250 27.360 C 244.775 27.360, 242.637 27.529, 245.250 27.735 M 228.269 28.693 C 229.242 28.947, 230.592 28.930, 231.269 28.656 C 231.946 28.382, 231.150 28.175, 229.500 28.195 C 227.850 28.215, 227.296 28.439, 228.269 28.693 M 266.250 28.716 C 267.762 28.945, 270.238 28.945, 271.750 28.716 C 273.262 28.487, 272.025 28.300, 269 28.300 C 265.975 28.300, 264.738 28.487, 266.250 28.716 M 284.500 30.980 C 338.114 40.684, 384.788 67.757, 419.760 109.438 C 447.086 142.007, 465.160 185.141, 469.945 229.211 C 472.790 255.402, 469.952 289.102, 462.861 313.346 C 461.759 317.111, 461.053 320.386, 461.291 320.624 C 461.878 321.212, 468.013 300.028, 468.006 297.438 C 468.003 296.304, 468.926 291.841, 470.058 287.520 C 471.911 280.446, 472.114 276.762, 472.097 250.500 C 472.085 231.572, 471.688 220.311, 470.967 218.418 C 470.355 216.813, 468.997 211.450, 467.948 206.500 C 458.460 161.740, 438.809 125.555, 406.577 93.491 C 379.871 66.925, 352.495 49.816, 318.676 38.556 C 305.375 34.127, 282.708 28.928, 277.385 29.085 C 275.798 29.132, 279 29.984, 284.500 30.980 M 263.264 50.718 C 264.784 50.947, 267.034 50.941, 268.264 50.704 C 269.494 50.467, 268.250 50.279, 265.500 50.286 C 262.750 50.294, 261.744 50.488, 263.264 50.718 M 223.022 51.124 C 223.010 51.467, 224.177 53.853, 225.615 56.426 C 228.302 61.235, 229.822 62.139, 228.073 57.889 C 227.041 55.381, 223.061 50.050, 223.022 51.124 M 278.103 53.192 C 278.748 54.397, 279.625 56.534, 280.052 57.942 C 280.828 60.500, 280.828 60.500, 280.914 57.684 C 281.011 54.516, 279.441 51, 277.930 51 C 277.316 51, 277.382 51.846, 278.103 53.192 M 266.050 57.440 C 264.555 59.241, 265.064 64.259, 266.775 64.598 C 267.476 64.737, 267.589 64.621, 267.025 64.342 C 265.705 63.687, 265.710 60.410, 267.035 57.934 C 268.255 55.656, 267.743 55.399, 266.050 57.440 M 271.841 59.789 C 272.797 60.460, 273.084 62.626, 272.841 67.320 C 272.654 70.944, 272.861 73.546, 273.302 73.103 C 273.742 72.660, 273.967 69.453, 273.802 65.978 C 273.583 61.391, 273.089 59.548, 272 59.253 C 270.800 58.929, 270.768 59.036, 271.841 59.789 M 218.383 66.909 C 219.122 75.199, 220.439 78.601, 223.750 80.770 C 226.736 82.726, 226.614 81.650, 223.524 78.785 C 221.551 76.955, 220.822 74.865, 219.938 68.495 C 218.516 58.263, 217.522 57.248, 218.383 66.909 M 318.500 62.662 C 320.150 63.531, 322.574 65.201, 323.887 66.372 C 325.504 67.813, 326.125 68.016, 325.810 67 C 325.221 65.096, 319.218 60.987, 317.102 61.040 C 316.181 61.063, 316.775 61.752, 318.500 62.662 M 171.062 72.221 C 172.082 79.549, 176.541 89.285, 180.072 91.895 C 181.683 93.086, 183 93.622, 183 93.087 C 183 92.551, 182.109 91.489, 181.020 90.727 C 178.273 88.802, 173.760 78.498, 173.072 72.579 C 172.757 69.873, 172.011 67.497, 171.413 67.300 C 170.663 67.053, 170.554 68.573, 171.062 72.221 M 332.434 68.893 C 332.810 69.502, 333.585 70, 334.155 70 C 334.725 70, 336.498 70.931, 338.096 72.068 C 339.693 73.206, 341 73.666, 341 73.091 C 341 71.856, 337.474 69.500, 334.125 68.497 C 332.500 68.010, 331.966 68.135, 332.434 68.893 M 265.050 70.440 C 263.204 72.664, 264.137 77.420, 266.500 77.831 C 268.451 78.171, 268.453 78.144, 266.599 76.743 C 264.966 75.509, 264.853 74.860, 265.797 72.153 C 267.011 68.671, 266.841 68.282, 265.050 70.440 M 321.655 71.829 C 319.617 74.081, 319.518 76, 321.441 76 C 323.352 76, 324.353 74.285, 322.756 73.748 C 321.772 73.417, 321.797 72.965, 322.872 71.663 C 324.735 69.406, 323.723 69.544, 321.655 71.829 M 276.872 73.750 C 275.644 75.317, 275.674 75.364, 277.166 74.197 C 278.592 73.082, 278.929 73.200, 279.506 75.020 C 279.877 76.188, 279.901 78.349, 279.560 79.822 C 279.096 81.822, 279.196 82.120, 279.954 81 C 281.648 78.497, 280.970 72, 279.015 72 C 278.592 72, 277.627 72.787, 276.872 73.750 M 326.638 79.777 C 325.392 81.793, 331.105 101.228, 332.526 99.807 C 332.801 99.532, 332.299 97.567, 331.411 95.441 C 330.522 93.314, 329.255 88.645, 328.594 85.065 C 327.902 81.315, 327.073 79.073, 326.638 79.777 M 314.340 88.555 C 314.012 89.411, 314.208 91.098, 314.775 92.305 C 315.676 94.224, 315.787 94.029, 315.653 90.754 C 315.485 86.637, 315.236 86.221, 314.340 88.555 M 370 91.586 C 370.825 92.639, 372.045 93.850, 372.711 94.278 C 374.384 95.353, 375.988 101.595, 375.994 107.059 C 376.001 112.552, 378.155 116.213, 380.183 114.179 C 381.273 113.085, 381.248 112.913, 380.042 113.179 C 378.916 113.427, 378.309 111.488, 377.381 104.678 C 376.166 95.758, 374.827 93.042, 370.511 90.744 C 368.639 89.747, 368.604 89.805, 370 91.586 M 123.750 94.662 C 124.438 94.940, 125 96.528, 125 98.192 C 125 100.325, 126.503 103.106, 130.101 107.627 C 135.126 113.941, 139 117.167, 139 115.035 C 139 114.466, 138.570 114, 138.045 114 C 136.348 114, 127 101.599, 127 99.346 C 127 95.948, 125.939 93.993, 124.143 94.079 C 123.105 94.129, 122.961 94.344, 123.750 94.662 M 244.750 95.737 C 247.637 95.939, 252.363 95.939, 255.250 95.737 C 258.137 95.535, 255.775 95.370, 250 95.370 C 244.225 95.370, 241.863 95.535, 244.750 95.737 M 265.250 96.689 C 266.212 96.941, 267.788 96.941, 268.750 96.689 C 269.712 96.438, 268.925 96.232, 267 96.232 C 265.075 96.232, 264.288 96.438, 265.250 96.689 M 281.500 99.478 C 334.289 111.824, 377.165 150.246, 394.822 201.030 C 404.526 228.938, 405.776 267.302, 397.862 294.346 C 396.760 298.111, 396.074 301.407, 396.337 301.670 C 397.003 302.336, 399.807 292.390, 402.304 280.500 C 405.423 265.650, 405.350 236.732, 402.156 222 C 397.491 200.481, 389.567 181.521, 377.873 163.895 C 370.256 152.414, 348.017 129.830, 336.823 122.209 C 320.586 111.153, 300.079 102.303, 281.775 98.453 C 270.736 96.130, 270.526 96.912, 281.500 99.478 M 144.618 104.765 C 146.344 105.899, 150.028 114.145, 149.320 115.291 C 148.946 115.897, 149.191 116, 149.927 115.545 C 152.266 114.100, 147.661 103.977, 144.682 104.015 C 143.830 104.026, 143.812 104.236, 144.618 104.765 M 387.325 106.041 C 388.751 107.163, 390.837 109.249, 391.959 110.675 C 393.082 112.102, 394 112.714, 394 112.035 C 394 110.430, 387.570 104, 385.965 104 C 385.286 104, 385.898 104.918, 387.325 106.041 M 361.924 111.750 C 359.500 114.500, 359.500 114.500, 362.250 112.076 C 363.762 110.742, 365 109.505, 365 109.326 C 365 108.541, 364.190 109.180, 361.924 111.750 M 359.195 117.500 C 359.215 119.150, 359.439 119.704, 359.693 118.731 C 359.947 117.758, 359.930 116.408, 359.656 115.731 C 359.382 115.054, 359.175 115.850, 359.195 117.500 M 374.437 129.250 C 371.500 132.500, 371.500 132.500, 374.750 129.563 C 377.779 126.825, 378.460 126, 377.687 126 C 377.515 126, 376.052 127.463, 374.437 129.250 M 99.500 133.659 C 107.005 137.609, 111.128 143.667, 111.354 151.077 C 111.454 154.347, 111.773 155.363, 112.367 154.305 C 113.774 151.797, 112.424 144.242, 109.912 140.577 C 107.390 136.896, 100.553 131.975, 98.050 132.040 C 97.197 132.062, 97.850 132.791, 99.500 133.659 M 196.112 136.173 C 199.688 141.105, 202.561 143, 206.464 143 C 207.767 143, 209.017 143.551, 209.241 144.224 C 209.466 144.898, 209.898 144.498, 210.202 143.336 C 210.711 141.391, 210.442 141.265, 206.817 141.751 C 203.091 142.251, 202.607 141.990, 197.801 136.890 C 192.723 131.500, 192.723 131.500, 196.112 136.173 M 141.924 138.750 C 139.500 141.500, 139.500 141.500, 142.250 139.076 C 144.820 136.810, 145.459 136, 144.674 136 C 144.495 136, 143.258 137.238, 141.924 138.750 M 413.051 136.500 C 413.054 137.050, 414.844 140.190, 417.028 143.479 C 421.291 149.895, 422.227 150.236, 419.034 144.210 C 416.694 139.795, 413.042 135.088, 413.051 136.500 M 144.473 145.250 C 137.500 152.500, 137.500 152.500, 144.750 145.527 C 151.484 139.050, 152.457 138, 151.723 138 C 151.571 138, 148.308 141.262, 144.473 145.250 M 351 141.313 C 351 141.485, 352.462 142.948, 354.250 144.563 C 357.500 147.500, 357.500 147.500, 354.563 144.250 C 351.825 141.221, 351 140.540, 351 141.313 M 135.437 145.250 C 132.500 148.500, 132.500 148.500, 135.750 145.563 C 138.779 142.825, 139.460 142, 138.687 142 C 138.515 142, 137.052 143.463, 135.437 145.250 M 183.812 145.352 C 185.634 146.012, 188.559 148.156, 190.312 150.117 C 193.844 154.067, 198.555 156.529, 199.539 154.938 C 199.874 154.395, 199.778 154.015, 199.324 154.094 C 197.009 154.496, 195.535 153.584, 191.094 149 C 187.404 145.192, 185.564 144.018, 183.375 144.076 C 180.500 144.152, 180.500 144.152, 183.812 145.352 M 85.357 146.513 C 84.105 149.775, 90.956 154.061, 97.218 153.933 C 100.264 153.870, 100.166 153.775, 95.849 152.612 C 89.852 150.997, 85.683 148.270, 86.390 146.426 C 86.691 145.642, 86.712 145, 86.437 145 C 86.162 145, 85.676 145.681, 85.357 146.513 M 250 147.820 C 250.825 148.354, 259.150 151.138, 268.500 154.008 C 289.242 160.374, 293.179 161.902, 292.339 163.260 C 291.961 163.872, 292.172 164.012, 292.845 163.595 C 293.480 163.203, 294 162.482, 294 161.994 C 294 161.021, 275.221 154.747, 250 147.292 C 248.667 146.898, 248.667 146.957, 250 147.820 M 305.683 147.650 C 305.308 148.026, 305.007 148.821, 305.015 149.417 C 305.024 150.012, 305.467 149.825, 306 149 C 306.765 147.816, 306.973 148.036, 306.985 150.050 C 307.003 153.041, 308.671 155, 311.200 155 C 312.190 155, 313 155.477, 313 156.059 C 313 156.641, 313.450 156.840, 314 156.500 C 315.944 155.298, 314.960 154.123, 311.750 153.813 C 309.145 153.562, 308.434 153.004, 308.165 151 C 307.782 148.138, 306.681 146.652, 305.683 147.650 M 301.500 152.727 C 297.460 153.302, 296.550 154.398, 298.708 156.092 C 300.341 157.375, 300.379 157.345, 299.128 155.750 C 297.885 154.165, 298.045 154, 300.819 154 C 302.503 154, 304.160 153.550, 304.500 153 C 304.840 152.450, 304.979 152.067, 304.809 152.150 C 304.639 152.232, 303.150 152.492, 301.500 152.727 M 56.954 157.086 C 56.340 158.233, 56.026 159.360, 56.257 159.590 C 56.487 159.820, 57.189 158.882, 57.816 157.504 C 59.194 154.480, 58.523 154.154, 56.954 157.086 M 399.028 159.466 C 398.359 160.273, 397.966 161.383, 398.155 161.934 C 398.345 162.484, 399.020 161.824, 399.656 160.467 C 400.974 157.654, 400.783 157.351, 399.028 159.466 M 53.679 164.546 C 51.330 169.473, 51.661 170.311, 54.116 165.656 C 55.232 163.541, 55.968 161.634, 55.752 161.418 C 55.535 161.202, 54.603 162.610, 53.679 164.546 M 192.915 163.165 C 193.549 163.899, 194.632 165.318, 195.320 166.318 C 196.452 167.960, 196.561 167.864, 196.453 165.318 C 196.364 163.192, 195.773 162.418, 194.048 162.165 C 192.220 161.897, 191.993 162.097, 192.915 163.165 M 49.625 173.979 C 47.369 179.619, 47.716 180.458, 50.092 175.104 C 51.164 172.687, 51.864 170.530, 51.646 170.313 C 51.428 170.095, 50.519 171.745, 49.625 173.979 M 199.121 173 C 199.104 173.825, 199.708 175.850, 200.464 177.500 C 202.232 181.362, 202.258 179.566, 200.500 175 C 199.759 173.075, 199.138 172.175, 199.121 173 M 276.975 174.565 C 275.806 177.641, 275.824 180.784, 277.026 183.500 C 277.645 184.899, 277.751 184.298, 277.376 181.500 C 277.082 179.300, 277.316 176.262, 277.896 174.750 C 278.476 173.238, 278.725 172, 278.450 172 C 278.175 172, 277.512 173.154, 276.975 174.565 M 303.634 172.674 C 304.258 173.128, 305.016 174.400, 305.319 175.500 C 305.753 177.077, 305.830 176.988, 305.685 175.078 C 305.583 173.746, 304.825 172.475, 304 172.252 C 303.009 171.985, 302.885 172.128, 303.634 172.674 M 181.534 173.765 C 182.103 174.169, 183.566 175.798, 184.784 177.385 C 187.657 181.125, 187.682 179.841, 184.812 175.960 C 183.609 174.332, 182.146 173.007, 181.562 173.015 C 180.837 173.026, 180.829 173.264, 181.534 173.765 M 309.405 174.155 C 308.983 174.837, 309.128 175.039, 309.760 174.648 C 310.348 174.285, 311.057 174.553, 311.336 175.244 C 311.641 176.002, 311.873 175.806, 311.921 174.750 C 312.010 172.771, 310.483 172.410, 309.405 174.155 M 315.660 173.677 C 316.298 174.133, 317.036 175.855, 317.301 177.503 C 317.741 180.249, 317.770 180.213, 317.641 177.077 C 317.554 174.970, 316.923 173.499, 316 173.251 C 314.987 172.979, 314.877 173.117, 315.660 173.677 M 221.232 177 C 221.232 178.925, 221.438 179.713, 221.689 178.750 C 221.941 177.787, 221.941 176.213, 221.689 175.250 C 221.438 174.287, 221.232 175.075, 221.232 177 M 430.948 175.717 C 429.795 177.238, 429.802 177.317, 430.998 176.250 C 433.199 174.287, 433.718 174.684, 435.583 179.750 C 437.696 185.492, 439.432 187.761, 438.451 183.500 C 437.595 179.779, 434.848 174.783, 433.391 174.297 C 432.791 174.097, 431.692 174.736, 430.948 175.717 M 118.500 179 C 117.647 180.650, 117.174 182, 117.449 182 C 117.724 182, 118.647 180.650, 119.500 179 C 120.353 177.350, 120.826 176, 120.551 176 C 120.276 176, 119.353 177.350, 118.500 179 M 292.389 181.696 C 292.456 183.631, 292.862 184.531, 293.417 183.978 C 293.974 183.425, 293.930 182.167, 293.306 180.783 C 292.349 178.658, 292.286 178.721, 292.389 181.696 M 44.592 188.147 C 37.580 211.249, 35.043 228.229, 35.018 252.216 C 34.997 272.899, 36.692 286.840, 41.496 305.490 C 59.437 375.136, 112.680 432.107, 180.407 454.129 C 186.956 456.258, 193.031 457.982, 193.907 457.960 C 194.783 457.938, 189.425 455.915, 182 453.465 C 165.196 447.919, 144.029 437.502, 128.424 427.099 C 80.512 395.157, 46.850 341.902, 38.603 285 C 33.916 252.658, 36.384 217.911, 45.454 188.540 C 46.806 184.161, 47.736 180.403, 47.520 180.187 C 47.304 179.971, 45.986 183.553, 44.592 188.147 M 70.500 183.842 C 75.381 186.826, 76.494 188.852, 76.577 194.903 C 76.653 200.500, 76.653 200.500, 80.077 200.641 C 82.877 200.756, 82.986 200.697, 80.675 200.317 C 77.999 199.877, 77.884 199.648, 78.502 195.990 C 79.329 191.092, 76.827 185.479, 72.915 183.456 C 68.862 181.360, 66.943 181.667, 70.500 183.842 M 179.220 184.533 C 180.716 186.106, 182.119 187.193, 182.338 186.947 C 182.557 186.701, 181.333 185.414, 179.618 184.086 C 176.500 181.672, 176.500 181.672, 179.220 184.533 M 250.250 183.716 C 251.762 183.945, 254.238 183.945, 255.750 183.716 C 257.262 183.487, 256.025 183.300, 253 183.300 C 249.975 183.300, 248.738 183.487, 250.250 183.716 M 175.910 186.832 C 176.450 187.840, 177.676 189.302, 178.637 190.082 C 179.717 190.960, 179.475 190.261, 178.003 188.250 C 175.377 184.662, 174.392 183.995, 175.910 186.832 M 308.618 186.733 C 312.701 187.022, 313.952 187.541, 314.801 189.298 C 315.516 190.777, 315.887 190.991, 315.932 189.950 C 316.053 187.180, 313.730 185.995, 308.550 186.185 C 303.500 186.370, 303.500 186.370, 308.618 186.733 M 111.045 194.545 C 109.294 198.752, 108.030 202.364, 108.237 202.571 C 108.444 202.778, 110.035 199.494, 111.773 195.273 C 113.510 191.052, 114.774 187.440, 114.581 187.247 C 114.388 187.054, 112.797 190.338, 111.045 194.545 M 216.088 188.871 C 218.167 190.554, 218.388 191.531, 218.298 198.621 C 218.197 206.500, 218.197 206.500, 219.091 201 C 220.216 194.074, 219.458 189.316, 217.023 188.012 C 214.028 186.410, 213.570 186.831, 216.088 188.871 M 260.768 187.725 C 262.565 187.947, 265.265 187.943, 266.768 187.715 C 268.271 187.486, 266.800 187.304, 263.500 187.310 C 260.200 187.315, 258.971 187.502, 260.768 187.725 M 285 188.117 C 286.375 188.661, 289.094 190.545, 291.042 192.303 C 293.051 194.117, 292.752 193.661, 290.350 191.250 C 288.022 188.912, 285.303 187.029, 284.308 187.063 C 282.977 187.110, 283.159 187.388, 285 188.117 M 229.776 188.733 C 232.128 188.945, 235.728 188.942, 237.776 188.727 C 239.824 188.512, 237.900 188.339, 233.500 188.343 C 229.100 188.346, 227.424 188.522, 229.776 188.733 M 273.549 189.412 C 275.008 190.479, 275.483 192.045, 275.490 195.813 C 275.496 198.556, 275.837 200.594, 276.250 200.341 C 277.318 199.687, 277.178 193.599, 276.025 190.565 C 275.488 189.154, 274.277 188, 273.334 188 C 271.814 188, 271.839 188.162, 273.549 189.412 M 279.365 197.500 C 279.368 203, 279.536 205.122, 279.738 202.216 C 279.941 199.311, 279.939 194.811, 279.734 192.216 C 279.528 189.622, 279.363 192, 279.365 197.500 M 428.500 189 C 427.155 191.177, 429.337 192.222, 434.245 191.750 C 439.230 191.271, 439.230 191.271, 441.632 196.703 C 442.954 199.691, 443.732 202.624, 443.363 203.222 C 442.950 203.890, 443.158 204.020, 443.904 203.559 C 445.463 202.596, 444.452 197.599, 441.820 193.265 C 440.010 190.285, 439.486 190.048, 435.178 190.265 C 431.873 190.431, 430.573 190.133, 430.750 189.250 C 431.048 187.760, 429.381 187.575, 428.500 189 M 244 190.500 C 247.287 192.379, 248.911 192.400, 246.441 190.532 C 245.374 189.724, 243.825 189.065, 243 189.067 C 242.130 189.069, 242.550 189.671, 244 190.500 M 62.116 194.643 C 61.992 196.929, 63.810 198.064, 67.332 197.898 C 68.999 197.819, 68.761 197.558, 66.298 196.767 C 64.537 196.201, 62.902 195.010, 62.664 194.119 C 62.365 192.999, 62.196 193.161, 62.116 194.643 M 229.136 198.550 C 228.921 201.795, 230.997 203.013, 236.450 202.840 C 240.252 202.719, 240.635 202.591, 238 202.320 C 231.591 201.661, 230.147 201.039, 229.706 198.748 C 229.314 196.714, 229.259 196.695, 229.136 198.550 M 297.475 199.997 C 298.561 201.374, 301.558 204.750, 304.134 207.500 C 306.711 210.250, 309.033 213.400, 309.294 214.500 C 309.768 216.500, 309.768 216.500, 309.835 214.500 C 309.875 213.321, 306.945 209.419, 302.701 204.997 C 298.741 200.871, 296.389 198.621, 297.475 199.997 M 256.011 199.487 C 253.912 202.016, 255.420 203.749, 259.157 203.104 C 262.500 202.527, 262.500 202.527, 259.250 202.200 C 255.779 201.851, 255.280 201.120, 257.200 199.200 C 257.860 198.540, 258.140 198, 257.822 198 C 257.505 198, 256.689 198.669, 256.011 199.487 M 85 199.980 C 86.039 200.637, 86.476 202.532, 86.423 206.146 C 86.374 209.473, 86.620 210.664, 87.103 209.432 C 88.919 204.794, 87.827 198.990, 85.143 199.015 C 83.719 199.029, 83.700 199.157, 85 199.980 M 105.147 211.234 C 92.002 255.580, 100.451 301.637, 129 341.255 C 139.352 355.621, 159.401 372.939, 177 382.718 C 188.454 389.083, 215.793 398.225, 222.378 397.893 C 223.545 397.834, 222.475 397.348, 220 396.814 C 196.979 391.842, 177.845 383.078, 158.883 368.821 C 136.919 352.305, 121.513 332.402, 111.616 307.753 C 100.527 280.137, 98.133 243.639, 105.505 214.579 C 106.886 209.136, 107.855 204.521, 107.658 204.325 C 107.462 204.128, 106.332 207.237, 105.147 211.234 M 343.119 204.664 C 344.009 204.902, 345.216 206.087, 345.801 207.298 C 346.516 208.778, 346.887 208.992, 346.932 207.950 C 347.020 205.941, 345.023 203.968, 343.050 204.116 C 341.727 204.215, 341.737 204.295, 343.119 204.664 M 172.662 206.087 C 173.300 206.864, 174.037 208.850, 174.299 210.500 C 174.659 212.766, 174.742 212.540, 174.638 209.577 C 174.550 207.067, 173.960 205.478, 173 205.165 C 171.814 204.777, 171.743 204.970, 172.662 206.087 M 268 215.500 C 265.571 217.975, 263.809 220, 264.084 220 C 264.359 220, 266.571 217.975, 269 215.500 C 271.429 213.025, 273.191 211, 272.916 211 C 272.641 211, 270.429 213.025, 268 215.500 M 172.105 216.747 C 171.274 218.753, 170.903 234.961, 170.810 273.307 C 170.680 327.056, 170.680 327.056, 173.221 329.778 C 174.619 331.275, 176.425 333.802, 177.234 335.393 C 178.161 337.216, 178.967 337.863, 179.412 337.143 C 179.800 336.514, 179.690 336, 179.167 336 C 178.645 336, 177.936 334.881, 177.593 333.513 C 177.249 332.145, 175.850 330.293, 174.484 329.398 C 172 327.770, 172 327.770, 172 273.319 C 172 236.210, 172.344 218.225, 173.081 216.849 C 173.676 215.738, 173.961 214.628, 173.716 214.382 C 173.470 214.137, 172.745 215.201, 172.105 216.747 M 222.301 218.317 C 224.060 220.141, 227.075 222.779, 229 224.180 C 230.925 225.580, 233.963 228.222, 235.750 230.052 C 237.537 231.882, 239 232.857, 239 232.218 C 239 231.579, 236.215 228.906, 232.812 226.278 C 229.408 223.650, 225.214 220.037, 223.491 218.250 C 221.768 216.463, 220.075 215, 219.730 215 C 219.385 215, 220.542 216.493, 222.301 218.317 M 275.641 217.041 C 276.118 217.518, 279.656 219.175, 283.504 220.723 C 290.500 223.539, 290.500 223.539, 290.411 228.729 C 290.361 231.584, 290.604 233.745, 290.950 233.531 C 291.296 233.317, 291.561 230.820, 291.539 227.982 C 291.500 222.821, 291.500 222.821, 283.137 219.498 C 278.537 217.670, 275.164 216.564, 275.641 217.041 M 342.768 220.431 C 342.513 221.768, 342.207 240.780, 342.090 262.681 C 341.972 284.581, 341.472 305.706, 340.978 309.625 C 339.805 318.939, 340.992 326.314, 344.224 329.797 C 345.604 331.284, 347.229 333.400, 347.836 334.500 C 348.443 335.600, 348.953 335.953, 348.970 335.285 C 348.986 334.616, 347.560 332.429, 345.800 330.425 C 342.599 326.780, 342.599 326.780, 342.803 287.640 C 342.915 266.113, 343.291 241.637, 343.637 233.250 C 344.221 219.146, 343.905 214.486, 342.768 220.431 M 198.750 224.978 C 201.411 226.111, 201.523 226.765, 199.447 229.059 C 198.038 230.615, 198.078 231.323, 199.875 236.638 C 200.965 239.862, 201.889 241.503, 201.929 240.284 C 201.968 239.065, 201.221 236.435, 200.270 234.439 C 198.616 230.972, 198.620 230.751, 200.357 229.481 C 202.876 227.639, 202.069 224.557, 198.990 224.260 C 196.532 224.023, 196.529 224.032, 198.750 224.978 M 297.792 226.076 C 298.502 226.996, 299.011 228.144, 298.923 228.625 C 298.553 230.651, 299.088 231.172, 300.414 230.072 C 301.571 229.112, 302.475 230.042, 305.398 235.199 C 307.362 238.665, 308.976 241.131, 308.985 240.679 C 309.017 238.942, 302.451 228.042, 301.546 228.331 C 301.021 228.499, 299.671 227.684, 298.546 226.519 C 297.421 225.355, 297.081 225.155, 297.792 226.076 M 63.463 226.750 C 63.835 227.713, 64.397 229.850, 64.711 231.500 C 65.587 236.108, 66.807 237, 72.229 237 C 76.440 237, 77.116 237.255, 76.584 238.641 C 76.057 240.014, 76.204 240.076, 77.477 239.019 C 80.207 236.753, 79.101 236, 73.047 236 C 67.094 236, 67.094 236, 66.053 232.250 C 65.480 230.188, 65.009 227.713, 65.006 226.750 C 65.003 225.787, 64.502 225, 63.893 225 C 63.247 225, 63.068 225.730, 63.463 226.750 M 434.639 225.694 C 434.288 226.046, 434.007 226.821, 434.015 227.417 C 434.024 228.012, 434.467 227.825, 435 227 C 435.719 225.887, 435.973 226.484, 435.985 229.316 C 436.010 235.568, 437.324 237, 443.035 237 C 448.167 237, 448.889 237.588, 446.750 240.023 C 446.063 240.806, 446.512 240.602, 447.750 239.568 C 451.150 236.730, 450.518 236, 444.661 236 C 439.909 236, 439.193 235.719, 438.161 233.453 C 437.522 232.052, 437 229.829, 437 228.512 C 437 226.043, 435.765 224.568, 434.639 225.694 M 154.411 247 C 154.411 256.625, 154.561 260.563, 154.745 255.750 C 154.928 250.937, 154.928 243.062, 154.745 238.250 C 154.561 233.438, 154.411 237.375, 154.411 247 M 0.310 236.500 C 0.315 239.800, 0.502 241.029, 0.725 239.232 C 0.947 237.435, 0.943 234.735, 0.715 233.232 C 0.486 231.729, 0.304 233.200, 0.310 236.500 M 239.720 233.332 C 239.324 234.339, 239.010 239.289, 239.022 244.332 C 239.052 256.939, 242.179 263.561, 249 265.459 C 251.272 266.091, 251.227 265.980, 248.500 264.239 C 244.477 261.671, 242.670 259.344, 243.568 257.889 C 244.071 257.076, 243.883 256.954, 242.985 257.510 C 242.015 258.109, 241.836 257.868, 242.319 256.612 C 242.759 255.464, 242.598 255.131, 241.831 255.604 C 241.051 256.086, 240.865 255.623, 241.249 254.155 C 241.560 252.968, 241.493 252.195, 241.102 252.437 C 240.710 252.679, 240.578 248.946, 240.808 244.142 C 241.037 239.338, 241.049 234.528, 240.833 233.454 C 240.462 231.605, 240.402 231.599, 239.720 233.332 M 296.386 234.437 C 296.083 235.227, 295.197 235.629, 294.417 235.330 C 293.638 235.031, 293 235.284, 293 235.893 C 293 236.502, 293.436 237, 293.969 237 C 294.501 237, 294.639 237.787, 294.275 238.750 C 293.685 240.307, 293.779 240.335, 295.125 239 C 295.957 238.175, 296.903 236.488, 297.226 235.250 C 297.874 232.765, 297.257 232.167, 296.386 234.437 M 253.178 243.349 C 253 253.171, 253.008 253.205, 256.106 256.099 C 257.814 257.694, 259.726 258.988, 260.356 258.973 C 260.985 258.959, 260.273 258.186, 258.774 257.256 C 255.040 254.941, 254.681 253.874, 253.974 243 C 253.356 233.500, 253.356 233.500, 253.178 243.349 M 286.519 236.611 C 285.585 238.037, 285.043 240.058, 285.316 241.101 C 285.589 242.144, 285.404 243.250, 284.906 243.558 C 283.314 244.542, 283.921 245.477, 287.048 246.861 C 290.762 248.505, 290.367 250.578, 286.395 250.290 C 283.500 250.080, 283.500 250.080, 286.256 251.125 C 287.941 251.764, 288.741 252.624, 288.314 253.335 C 287.930 253.976, 288.372 253.887, 289.297 253.137 C 290.222 252.387, 290.731 251.374, 290.430 250.887 C 290.129 250.399, 290.284 250, 290.774 250 C 293.092 250, 291.294 246.874, 288.367 245.816 C 285.873 244.914, 285.325 244.314, 286.120 243.355 C 286.699 242.658, 286.907 241.659, 286.583 241.134 C 285.808 239.881, 286.982 236.871, 288 237.500 C 288.435 237.769, 289.043 237.331, 289.352 236.526 C 290.362 233.893, 288.259 233.956, 286.519 236.611 M 207 238.976 C 207 239.604, 207.412 239.864, 207.915 239.553 C 208.418 239.242, 209.059 239.452, 209.340 240.019 C 209.620 240.586, 209.743 240.504, 209.613 239.838 C 209.302 238.252, 207 237.492, 207 238.976 M 398.252 242.500 C 398.263 244.700, 398.468 245.482, 398.707 244.238 C 398.946 242.994, 398.937 241.194, 398.687 240.238 C 398.437 239.282, 398.241 240.300, 398.252 242.500 M 309.124 242.500 C 309.077 243.050, 309.665 245.750, 310.430 248.500 C 311.195 251.250, 311.827 252.600, 311.834 251.500 C 311.847 249.371, 309.269 240.808, 309.124 242.500 M 442.011 243.487 C 440.598 245.189, 441.209 248.585, 443.452 251.500 C 444.787 253.236, 444.779 252.976, 443.391 249.532 C 442.173 246.512, 442.057 245.139, 442.904 243.782 C 444.255 241.618, 443.711 241.438, 442.011 243.487 M 0.395 256.500 C 0.396 264.200, 0.553 267.218, 0.743 263.206 C 0.934 259.195, 0.932 252.895, 0.741 249.206 C 0.549 245.518, 0.393 248.800, 0.395 256.500 M 69.396 244.410 C 68.884 245.744, 71.485 252, 72.551 252 C 72.826 252, 72.332 250.609, 71.453 248.910 C 70.574 247.210, 70.099 245.185, 70.396 244.410 C 70.694 243.634, 70.712 243, 70.437 243 C 70.162 243, 69.694 243.634, 69.396 244.410 M 211 247.878 C 211 248.360, 211.675 249.315, 212.500 250 C 213.325 250.685, 214 251.869, 214 252.632 C 214 253.395, 214.900 254.790, 216 255.732 C 217.100 256.674, 218 258.218, 218 259.163 C 218 260.109, 218.480 261.179, 219.067 261.541 C 221.112 262.805, 221.204 261.095, 219.240 258.308 C 218.151 256.763, 216.293 253.588, 215.110 251.250 C 213.166 247.408, 211 245.631, 211 247.878 M 463.286 251.500 C 463.294 254.250, 463.488 255.256, 463.718 253.736 C 463.947 252.216, 463.941 249.966, 463.704 248.736 C 463.467 247.506, 463.279 248.750, 463.286 251.500 M 280.116 250.715 C 280.052 251.933, 279.100 253.411, 278 254 C 276.834 254.624, 276.057 255.994, 276.136 257.285 C 276.272 259.500, 276.272 259.500, 276.706 257.250 C 277.250 254.426, 277.941 254.445, 280.705 257.362 C 282.447 259.200, 282.657 259.963, 281.705 260.991 C 280.761 262.011, 280.771 262.141, 281.750 261.588 C 282.438 261.200, 283 261.385, 283 262 C 283 262.615, 283.416 262.861, 283.924 262.547 C 284.433 262.233, 285.055 262.769, 285.308 263.738 C 285.561 264.707, 285.820 264.074, 285.884 262.332 C 286.024 258.502, 285.109 255.815, 283.916 256.552 C 283.435 256.849, 282.103 256.590, 280.956 255.977 C 279.323 255.103, 279.120 254.561, 280.018 253.478 C 280.649 252.718, 280.955 251.287, 280.699 250.298 C 280.327 248.865, 280.208 248.950, 280.116 250.715 M 206.505 253.218 C 207.383 255.402, 208.029 260.353, 208.070 265.218 C 208.109 269.773, 208.483 274.374, 208.901 275.443 C 209.677 277.425, 209.310 262.013, 208.449 256.424 C 208.188 254.732, 207.307 252.482, 206.492 251.424 C 205.193 249.738, 205.194 249.960, 206.505 253.218 M 312.232 257 C 312.232 258.925, 312.438 259.712, 312.689 258.750 C 312.941 257.788, 312.941 256.212, 312.689 255.250 C 312.438 254.287, 312.232 255.075, 312.232 257 M 273.314 256.750 C 272.972 257.712, 272.466 258.907, 272.191 259.405 C 271.916 259.902, 272.156 260.022, 272.725 259.670 C 273.767 259.026, 275.189 255, 274.375 255 C 274.134 255, 273.657 255.787, 273.314 256.750 M 398.232 259 C 398.232 260.925, 398.438 261.712, 398.689 260.750 C 398.941 259.788, 398.941 258.212, 398.689 257.250 C 398.438 256.288, 398.232 257.075, 398.232 259 M 326.195 261.500 C 326.215 263.150, 326.439 263.704, 326.693 262.731 C 326.947 261.758, 326.930 260.408, 326.656 259.731 C 326.382 259.054, 326.175 259.850, 326.195 261.500 M 266.246 260.689 C 267.634 261.052, 267.781 261.541, 266.961 263.073 C 266.394 264.133, 265.158 265.036, 264.215 265.079 C 263.118 265.129, 262.963 265.344, 263.784 265.673 C 264.490 265.957, 265.675 265.685, 266.417 265.069 C 267.445 264.216, 267.914 264.334, 268.386 265.565 C 268.727 266.453, 268.757 267.585, 268.451 268.079 C 268.146 268.573, 268.549 268.727, 269.347 268.420 C 270.145 268.114, 271.095 268.344, 271.458 268.932 C 271.829 269.532, 271.326 270.035, 270.309 270.079 C 269.203 270.127, 268.999 270.358, 269.784 270.673 C 270.490 270.957, 271.738 270.632, 272.558 269.952 C 273.378 269.272, 274.375 269.066, 274.774 269.494 C 275.173 269.923, 275.001 270.453, 274.392 270.673 C 273.782 270.893, 272.432 271.756, 271.392 272.591 C 269.591 274.037, 269.605 274.060, 271.684 273.055 C 274.900 271.502, 275.876 271.757, 275.290 274 C 274.871 275.603, 275.237 275.977, 277.133 275.884 C 278.714 275.806, 278.941 275.621, 277.817 275.324 C 276.494 274.974, 276.173 273.825, 276.317 269.939 C 276.461 266.064, 276.166 264.998, 274.950 264.999 C 274.097 265, 272.754 264.438, 271.965 263.750 C 271.176 263.063, 271.614 263.738, 272.939 265.250 C 275.404 268.063, 274.467 268.856, 270.922 266.958 C 269.587 266.244, 269.112 265.169, 269.408 263.535 C 269.829 261.210, 268.342 259.850, 265.668 260.116 C 265.026 260.180, 265.286 260.437, 266.246 260.689 M 313.343 268.500 C 313.346 272.900, 313.522 274.576, 313.733 272.224 C 313.945 269.872, 313.942 266.272, 313.727 264.224 C 313.512 262.176, 313.339 264.100, 313.343 268.500 M 213 264.559 C 213 265.416, 213.450 265.840, 214 265.500 C 214.550 265.160, 215 264.459, 215 263.941 C 215 263.423, 214.550 263, 214 263 C 213.450 263, 213 263.702, 213 264.559 M 282.015 268.021 C 283.227 269.723, 284.477 270.857, 284.792 270.541 C 285.108 270.225, 284.834 269.434, 284.183 268.783 C 282.448 267.048, 282.741 265.970, 284.750 266.691 C 285.712 267.036, 286.218 267.002, 285.873 266.615 C 285.528 266.229, 284.023 265.690, 282.529 265.419 C 279.812 264.927, 279.812 264.927, 282.015 268.021 M 258.269 266.693 C 259.242 266.947, 260.592 266.930, 261.269 266.656 C 261.946 266.382, 261.150 266.175, 259.500 266.195 C 257.850 266.215, 257.296 266.439, 258.269 266.693 M 263 268.430 C 263 269.217, 261.988 270.056, 260.750 270.294 C 258.821 270.666, 258.892 270.747, 261.250 270.864 C 263.379 270.969, 264 270.548, 264 269 C 264 267.900, 263.775 267, 263.500 267 C 263.225 267, 263 267.644, 263 268.430 M 218.337 270.988 C 222.442 275.867, 229.996 282.005, 231.811 281.937 C 232.996 281.892, 232.806 281.595, 231.174 280.941 C 229.895 280.428, 226.146 277.306, 222.844 274.004 C 216.410 267.570, 214.237 266.116, 218.337 270.988 M 82.632 277.519 C 83.976 282.459, 85.688 289.200, 86.437 292.500 C 87.670 297.932, 87.809 298.143, 87.900 294.725 C 87.955 292.649, 87.145 288.516, 86.099 285.542 C 85.054 282.567, 83.896 278.345, 83.527 276.159 C 83.158 273.973, 82.256 271.364, 81.523 270.362 C 80.723 269.268, 81.166 272.130, 82.632 277.519 M 446.872 270.750 C 445.616 272.352, 445.654 272.379, 447.326 271.064 C 450.239 268.774, 451.181 271.400, 450.647 280.327 C 450.389 284.632, 450.322 288.007, 450.497 287.827 C 450.672 287.647, 451.283 284.958, 451.855 281.851 C 453.575 272.505, 450.634 265.953, 446.872 270.750 M 305.083 271.250 C 305.313 271.387, 306.850 272.625, 308.500 274 C 311.500 276.500, 311.500 276.500, 309.076 273.750 C 307.742 272.238, 306.205 271, 305.659 271 C 305.113 271, 304.854 271.113, 305.083 271.250 M 261.870 273.694 C 262.497 274.901, 263.466 276.170, 264.022 276.513 C 264.578 276.857, 264.793 277.526, 264.500 278 C 264.207 278.474, 264.494 279.187, 265.138 279.585 C 265.869 280.037, 266.041 279.876, 265.595 279.155 C 265.203 278.520, 265.306 278, 265.824 278 C 266.343 278, 267.019 277.035, 267.327 275.856 C 267.746 274.254, 267.600 274, 266.751 274.849 C 265.902 275.698, 264.996 275.419, 263.171 273.743 C 260.729 271.500, 260.729 271.500, 261.870 273.694 M 283 272.948 C 283 273.435, 283.464 273.988, 284.030 274.177 C 284.597 274.366, 285.214 277.891, 285.401 282.010 C 285.588 286.130, 285.800 290.512, 285.871 291.750 C 285.983 293.696, 286.553 294, 290.090 294 C 293.383 294, 294.694 293.415, 296.813 291 C 299.786 287.611, 300.547 287.404, 302.571 289.429 C 304.726 291.583, 304.302 292.821, 301.250 293.284 C 298.690 293.671, 298.725 293.711, 301.750 293.850 C 303.924 293.950, 305 293.542, 305 292.615 C 305 291.853, 306.139 290.483, 307.532 289.571 C 308.924 288.659, 309.835 287.542, 309.555 287.090 C 309.276 286.637, 309.937 285.462, 311.024 284.479 C 312.111 283.495, 313 283.183, 313 283.786 C 313 284.389, 312.592 285.134, 312.094 285.442 C 311.596 285.750, 311.402 286.820, 311.663 287.821 C 311.925 288.821, 311.433 290.226, 310.570 290.942 C 309.706 291.659, 309.007 292.752, 309.015 293.372 C 309.024 293.993, 309.510 293.825, 310.096 293 C 310.917 291.845, 311.024 292.132, 310.562 294.250 C 309.495 299.139, 310.896 297.166, 312.563 291.431 C 313.454 288.368, 313.917 284.806, 313.593 283.515 C 313.004 281.167, 313.004 281.167, 309.752 284.334 C 307.713 286.319, 306.873 287.815, 307.500 288.344 C 308.076 288.831, 307.723 288.937, 306.668 288.594 C 305.661 288.267, 304.311 287.993, 303.668 287.985 C 302.932 287.975, 303.010 287.646, 303.878 287.096 C 305.531 286.050, 304.509 284, 302.334 284 C 301.369 284, 301.003 284.565, 301.362 285.500 C 301.692 286.360, 301.382 287, 300.634 287 C 299.917 287, 298.128 288.350, 296.658 290 C 294.802 292.083, 293.060 293, 290.961 293 C 287.392 293, 286.915 292.055, 286.575 284.307 C 286.113 273.782, 286.013 273.219, 284.500 272.638 C 283.675 272.322, 283 272.461, 283 272.948 M 326.195 276.500 C 326.215 278.150, 326.439 278.704, 326.693 277.731 C 326.947 276.758, 326.930 275.408, 326.656 274.731 C 326.382 274.054, 326.175 274.850, 326.195 276.500 M 253.667 276.667 C 253.300 277.033, 253 278.361, 253 279.617 C 253 280.873, 252.213 282.359, 251.250 282.920 C 249.094 284.176, 251.189 284.221, 255 283 C 256.862 282.404, 257.025 282.174, 255.637 282.100 C 254.149 282.020, 253.862 281.395, 254.213 279 C 254.689 275.759, 254.667 275.666, 253.667 276.667 M 51 278.125 C 51 279.237, 53.512 280.334, 54.934 279.844 C 55.484 279.655, 54.824 278.980, 53.467 278.344 C 52.088 277.698, 51 277.601, 51 278.125 M 210.086 279 C 210.055 279.825, 210.467 281.175, 211 282 C 212.181 283.828, 212.181 282.249, 211 279.500 C 210.433 278.181, 210.122 278.011, 210.086 279 M 288 279.213 C 288 280.256, 289.159 280.185, 290.987 279.029 C 292.156 278.290, 291.996 278.125, 290.237 278.257 C 289.007 278.350, 288 278.780, 288 279.213 M 292.231 282.484 C 292.075 284.367, 292.613 285.116, 294.456 285.578 C 295.793 285.914, 297.342 285.907, 297.899 285.562 C 299.391 284.640, 298.053 281.987, 296.143 282.079 C 295.105 282.129, 294.961 282.344, 295.750 282.662 C 296.438 282.940, 297 283.634, 297 284.206 C 297 284.820, 296.367 284.720, 295.454 283.962 C 294.604 283.257, 294.140 282.077, 294.423 281.340 C 294.706 280.603, 294.375 280, 293.687 280 C 292.999 280, 292.344 281.118, 292.231 282.484 M 240.399 282.524 C 241.993 283.355, 243.555 283.778, 243.870 283.464 C 244.700 282.633, 241.836 281.032, 239.500 281.021 C 237.902 281.014, 238.082 281.316, 240.399 282.524 M 249.164 288 C 249.434 288.825, 250.970 289.581, 252.577 289.679 C 254.413 289.792, 254.757 289.659, 253.500 289.322 C 252.400 289.026, 250.864 288.271, 250.087 287.642 C 248.977 286.745, 248.780 286.821, 249.164 288 M 441 288.501 C 439.380 290.452, 438.384 299, 439.776 299 C 440.346 299, 440.601 298.190, 440.342 297.201 C 440.083 296.211, 440.523 293.511, 441.319 291.201 C 442.903 286.604, 442.862 286.257, 441 288.501 M 69 289.500 C 68.007 290.697, 68.007 291.303, 69 292.500 C 69.685 293.325, 70.752 293.986, 71.372 293.968 C 71.993 293.951, 71.646 293.290, 70.602 292.499 C 69.032 291.311, 68.923 290.797, 69.974 289.531 C 70.673 288.689, 71.020 288, 70.745 288 C 70.470 288, 69.685 288.675, 69 289.500 M 426 290.274 C 426 292.266, 429 294.032, 432.184 293.914 C 434.169 293.840, 434.072 293.700, 431.501 292.934 C 429.852 292.442, 427.939 291.270, 427.251 290.329 C 426.109 288.767, 426 288.762, 426 290.274 M 313.028 296.466 C 312.359 297.273, 312.043 298.510, 312.327 299.216 C 312.660 300.047, 312.870 299.903, 312.921 298.809 C 313.081 295.390, 315.020 296.011, 316.613 299.990 C 317.513 302.241, 318.438 303.895, 318.667 303.666 C 319.292 303.041, 315.902 295, 315.014 295 C 314.591 295, 313.697 295.660, 313.028 296.466 M 286.516 297.950 C 286.175 299.023, 286.571 301.204, 287.395 302.797 C 288.219 304.390, 288.650 306.624, 288.352 307.761 C 287.962 309.254, 288.464 310.146, 290.156 310.970 C 292.217 311.972, 292.294 311.943, 290.798 310.730 C 289.715 309.852, 289.302 308.559, 289.664 307.177 C 289.985 305.947, 289.517 303.912, 288.586 302.492 C 287.329 300.573, 287.192 299.510, 288.005 297.990 C 288.656 296.774, 288.694 296, 288.103 296 C 287.570 296, 286.856 296.878, 286.516 297.950 M 444.984 296.969 C 445.873 297.531, 446.717 300.232, 447.087 303.704 C 447.706 309.500, 447.706 309.500, 447.853 304.332 C 448.030 298.123, 447.336 295.995, 445.143 296.015 C 443.731 296.028, 443.709 296.163, 444.984 296.969 M 292.492 301.014 C 292.111 301.629, 292.070 302.403, 292.400 302.733 C 292.730 303.063, 293 302.808, 293 302.167 C 293 300.468, 294.772 300.737, 295.325 302.520 C 295.683 303.674, 295.761 303.634, 295.648 302.352 C 295.469 300.314, 293.452 299.459, 292.492 301.014 M 309.067 300.500 C 309.074 302.266, 311.926 306.638, 311.965 304.941 C 311.984 304.084, 311.339 302.509, 310.532 301.441 C 309.724 300.374, 309.065 299.950, 309.067 300.500 M 299.374 302.467 C 299.065 303.274, 299.004 304.511, 299.240 305.217 C 299.476 305.923, 299.906 305.262, 300.196 303.750 C 300.762 300.797, 300.295 300.068, 299.374 302.467 M 302.537 303.405 C 302.906 305.259, 302.643 306.611, 301.808 307.140 C 300.766 307.801, 300.760 307.972, 301.781 307.985 C 303.700 308.008, 304.409 305.181, 303.107 302.695 C 302.050 300.675, 302.004 300.731, 302.537 303.405 M 394.111 306.111 C 393.495 307.878, 393.166 309.499, 393.380 309.713 C 393.594 309.927, 394.273 308.656, 394.889 306.889 C 395.505 305.122, 395.834 303.501, 395.620 303.287 C 395.406 303.073, 394.727 304.344, 394.111 306.111 M 155.370 314 C 155.370 319.775, 155.535 322.137, 155.737 319.250 C 155.939 316.363, 155.939 311.637, 155.737 308.750 C 155.535 305.863, 155.370 308.225, 155.370 314 M 206.353 310.250 C 206.939 313.137, 207.591 314.668, 207.802 313.650 C 208.319 311.152, 207.108 305, 206.099 305 C 205.653 305, 205.767 307.363, 206.353 310.250 M 326.252 308.500 C 326.263 310.700, 326.468 311.482, 326.707 310.238 C 326.946 308.994, 326.937 307.194, 326.687 306.238 C 326.437 305.282, 326.241 306.300, 326.252 308.500 M 246.380 309.452 C 245.330 312.188, 248.935 314.532, 250.442 312.093 C 250.751 311.595, 250.031 311.441, 248.843 311.751 C 247.022 312.228, 246.772 311.979, 247.248 310.158 C 247.882 307.735, 247.239 307.212, 246.380 309.452 M 298.115 310.092 C 298.877 310.575, 301.525 310.941, 304 310.906 C 309.332 310.830, 308.388 310.349, 301.615 309.690 C 298.606 309.398, 297.262 309.552, 298.115 310.092 M 410.106 310.027 C 409.892 313.112, 413.361 316.161, 422.057 320.528 C 426.954 322.988, 431.757 324.996, 432.730 324.991 C 433.704 324.986, 429.550 322.589, 423.500 319.664 C 414.567 315.345, 412.285 313.797, 411.356 311.423 C 410.727 309.815, 410.165 309.187, 410.106 310.027 M 311.020 311.524 C 311.716 312.362, 312.491 312.842, 312.743 312.591 C 313.436 311.897, 312.027 310, 310.819 310 C 310.155 310, 310.231 310.574, 311.020 311.524 M 93.708 316.113 C 95.346 319.183, 97.013 322.776, 97.411 324.097 C 97.809 325.419, 98.357 325.968, 98.628 325.317 C 99.250 323.826, 94.496 313.656, 92.340 311.868 C 91.395 311.083, 91.961 312.838, 93.708 316.113 M 391.162 313.543 C 389.487 317.220, 389.807 318.005, 391.618 314.662 C 392.464 313.100, 392.969 311.636, 392.741 311.407 C 392.512 311.179, 391.802 312.140, 391.162 313.543 M 220.762 316.707 C 222.006 316.946, 223.806 316.937, 224.762 316.687 C 225.718 316.437, 224.700 316.241, 222.500 316.252 C 220.300 316.263, 219.518 316.468, 220.762 316.707 M 214 318.168 C 214 318.625, 216.363 319.005, 219.250 319.011 C 222.137 319.017, 226.300 319.235, 228.500 319.496 C 232.500 319.969, 232.500 319.969, 229 319.091 C 223.887 317.809, 214 317.200, 214 318.168 M 275.750 318.723 C 277.538 318.945, 280.462 318.945, 282.250 318.723 C 284.038 318.502, 282.575 318.320, 279 318.320 C 275.425 318.320, 273.962 318.502, 275.750 318.723 M 291.500 319 C 287.500 319.716, 287.500 319.716, 291.191 319.858 C 293.221 319.936, 295.160 319.550, 295.500 319 C 295.840 318.450, 295.979 318.064, 295.809 318.142 C 295.639 318.220, 293.700 318.606, 291.500 319 M 237.231 320.836 C 236.315 321.418, 236.705 322.039, 238.634 323.071 C 240.103 323.857, 243.051 326.863, 245.184 329.750 C 248.869 334.737, 251 336.273, 251 333.941 C 251 333.359, 250.588 333.136, 250.085 333.447 C 249.582 333.758, 248.260 332.539, 247.148 330.739 C 246.035 328.939, 243.986 326.396, 242.593 325.088 C 241.201 323.780, 240.296 322.330, 240.583 321.866 C 240.869 321.402, 240.332 321.319, 239.388 321.681 C 238.224 322.128, 237.904 321.964, 238.395 321.170 C 239.240 319.803, 238.977 319.728, 237.231 320.836 M 303.791 321.984 C 307.864 322.949, 310.265 325.071, 313.465 330.530 C 315.790 334.497, 318.614 336.720, 319.810 335.524 C 320.098 335.236, 319.813 335, 319.178 335 C 318.543 335, 315.977 332.188, 313.475 328.750 C 308.744 322.247, 307.184 321.119, 303 321.173 C 300.967 321.199, 301.114 321.350, 303.791 321.984 M 435.850 323.817 C 436.592 324.325, 437.576 326.262, 438.036 328.121 C 438.872 331.500, 438.872 331.500, 438.686 327.508 C 438.539 324.365, 438.075 323.450, 436.500 323.205 C 435.012 322.972, 434.846 323.129, 435.850 323.817 M 401.115 329.500 C 401.069 330.600, 401.361 331.995, 401.765 332.600 C 402.724 334.037, 406.510 336.013, 408.184 335.952 C 408.908 335.926, 407.943 335.138, 406.041 334.202 C 404.007 333.201, 402.297 331.470, 401.891 330 C 401.338 328.001, 401.182 327.901, 401.115 329.500 M 457.111 331.111 C 456.495 332.878, 456.166 334.499, 456.380 334.713 C 456.594 334.927, 457.273 333.656, 457.889 331.889 C 458.505 330.122, 458.834 328.501, 458.620 328.287 C 458.406 328.073, 457.727 329.344, 457.111 331.111 M 416.323 336.629 C 414.655 339.176, 414.673 339.317, 416.911 341.129 C 418.182 342.158, 420.184 342.959, 421.361 342.910 C 422.887 342.845, 422.568 342.551, 420.250 341.881 C 417.813 341.177, 417 340.375, 417 338.671 C 417 337.422, 417.540 335.860, 418.200 335.200 C 418.860 334.540, 419.095 334, 418.723 334 C 418.351 334, 417.271 335.183, 416.323 336.629 M 102.292 337.103 C 103.277 337.677, 106.090 340.903, 108.542 344.273 C 110.994 347.643, 113 349.928, 113 349.350 C 113 346.914, 103.732 335.980, 101.711 336.030 C 101.045 336.047, 101.306 336.530, 102.292 337.103 M 206.269 336.693 C 207.242 336.947, 208.592 336.930, 209.269 336.656 C 209.946 336.382, 209.150 336.175, 207.500 336.195 C 205.850 336.215, 205.296 336.439, 206.269 336.693 M 292.762 336.707 C 294.006 336.946, 295.806 336.937, 296.762 336.687 C 297.718 336.437, 296.700 336.241, 294.500 336.252 C 292.300 336.263, 291.518 336.468, 292.762 336.707 M 426.196 342.620 C 427.315 342.954, 428.028 344.466, 428.294 347.070 C 428.696 351.015, 428.696 351.015, 428.598 346.766 C 428.518 343.289, 428.137 342.481, 426.500 342.316 C 425.045 342.170, 424.962 342.253, 426.196 342.620 M 447.705 352.528 C 446.229 355.538, 445.234 358, 445.494 358 C 446.167 358, 451.211 347.878, 450.762 347.429 C 450.557 347.224, 449.182 349.518, 447.705 352.528 M 167.762 349.707 C 169.006 349.946, 170.806 349.937, 171.762 349.687 C 172.718 349.437, 171.700 349.241, 169.500 349.252 C 167.300 349.263, 166.518 349.468, 167.762 349.707 M 178.269 349.693 C 179.242 349.947, 180.592 349.930, 181.269 349.656 C 181.946 349.382, 181.150 349.175, 179.500 349.195 C 177.850 349.215, 177.296 349.439, 178.269 349.693 M 189.446 350.087 C 189.077 350.685, 189.302 351.698, 189.946 352.337 C 190.840 353.224, 190.966 353.100, 190.479 351.819 C 189.974 350.493, 190.541 350.052, 193.170 349.729 C 196.500 349.320, 196.500 349.320, 193.309 349.160 C 191.554 349.072, 189.816 349.489, 189.446 350.087 M 202.750 349.723 C 204.537 349.945, 207.463 349.945, 209.250 349.723 C 211.037 349.502, 209.575 349.320, 206 349.320 C 202.425 349.320, 200.963 349.502, 202.750 349.723 M 244.269 349.693 C 245.242 349.947, 246.592 349.930, 247.269 349.656 C 247.946 349.382, 247.150 349.175, 245.500 349.195 C 243.850 349.215, 243.296 349.439, 244.269 349.693 M 259.500 349.738 C 262.994 350.249, 264.896 351.623, 266.048 354.465 C 266.620 355.875, 266.893 356.020, 266.937 354.939 C 267.052 352.102, 263.166 348.989, 259.711 349.150 C 256.500 349.300, 256.500 349.300, 259.500 349.738 M 268.728 349.722 C 270.503 349.943, 273.653 349.946, 275.728 349.730 C 277.802 349.513, 276.350 349.333, 272.500 349.328 C 268.650 349.324, 266.952 349.501, 268.728 349.722 M 304.750 349.706 C 305.988 349.944, 308.012 349.944, 309.250 349.706 C 310.488 349.467, 309.475 349.272, 307 349.272 C 304.525 349.272, 303.512 349.467, 304.750 349.706 M 103.250 352.662 C 101.674 353.298, 101.626 355.651, 103.170 356.605 C 103.938 357.080, 104.137 356.798, 103.748 355.786 C 103.423 354.938, 103.661 353.739, 104.278 353.122 C 105.466 351.934, 105.271 351.847, 103.250 352.662 M 115.532 353 C 116.894 355.333, 125 365.152, 125 364.469 C 125 363.343, 119.254 355.519, 116.945 353.500 C 115.629 352.350, 115.029 352.138, 115.532 353 M 275.500 352.724 C 276.600 352.994, 278.175 353.729, 279 354.358 C 280.305 355.351, 280.321 355.272, 279.128 353.750 C 278.373 352.788, 276.798 352.052, 275.628 352.116 C 273.607 352.226, 273.600 352.257, 275.500 352.724 M 389.422 355.919 C 391.122 357.693, 391.919 359.322, 391.455 360.073 C 390.964 360.868, 391.103 361.054, 391.845 360.595 C 393.634 359.490, 393.220 357.556, 390.686 355.174 C 387.234 351.932, 386.191 352.547, 389.422 355.919 M 177.300 359 C 177.300 362.025, 177.487 363.262, 177.716 361.750 C 177.945 360.238, 177.945 357.762, 177.716 356.250 C 177.487 354.738, 177.300 355.975, 177.300 359 M 261.328 360.500 C 261.333 364.350, 261.513 365.802, 261.730 363.728 C 261.946 361.653, 261.943 358.503, 261.722 356.728 C 261.501 354.952, 261.324 356.650, 261.328 360.500 M 272.268 355.417 C 272.395 356.472, 273.175 357.518, 274 357.743 C 274.965 358.006, 275.107 357.857, 274.400 357.326 C 273.795 356.872, 273.015 355.825, 272.668 355 C 272.223 353.946, 272.104 354.070, 272.268 355.417 M 303.272 359 C 303.272 361.475, 303.467 362.488, 303.706 361.250 C 303.944 360.012, 303.944 357.988, 303.706 356.750 C 303.467 355.512, 303.272 356.525, 303.272 359 M 172.272 361 C 172.272 363.475, 172.467 364.488, 172.706 363.250 C 172.944 362.012, 172.944 359.988, 172.706 358.750 C 172.467 357.512, 172.272 358.525, 172.272 361 M 240.195 359.500 C 240.215 361.150, 240.439 361.704, 240.693 360.731 C 240.947 359.758, 240.930 358.408, 240.656 357.731 C 240.382 357.054, 240.175 357.850, 240.195 359.500 M 349.437 361.250 C 346.500 364.500, 346.500 364.500, 349.750 361.563 C 352.779 358.825, 353.460 358, 352.687 358 C 352.515 358, 351.052 359.462, 349.437 361.250 M 250 360.313 C 250 360.485, 251.463 361.948, 253.250 363.563 C 256.500 366.500, 256.500 366.500, 253.563 363.250 C 250.825 360.221, 250 359.540, 250 360.313 M 402.047 365.750 C 406.804 370.244, 408.561 376.762, 406.400 381.899 C 405.683 383.605, 405.323 385, 405.599 385 C 407.119 385, 409.072 377.384, 408.468 373.812 C 407.806 369.891, 401.610 362, 399.194 362 C 398.580 362, 399.864 363.688, 402.047 365.750 M 89.552 364.942 C 88.586 366.010, 88.030 367.473, 88.318 368.192 C 88.722 369.199, 88.860 369.173, 88.921 368.079 C 88.964 367.297, 89.745 365.835, 90.655 364.829 C 91.565 363.823, 92.085 363, 91.810 363 C 91.535 363, 90.519 363.874, 89.552 364.942 M 106.160 364.750 C 103.531 369.803, 100.807 386.140, 102.338 387.671 C 102.702 388.035, 103 386.938, 103 385.232 C 103 381.650, 105.392 369.729, 106.914 365.727 C 108.070 362.686, 107.571 362.039, 106.160 364.750 M 353.924 365.750 C 351.500 368.500, 351.500 368.500, 354.250 366.076 C 355.762 364.742, 357 363.505, 357 363.326 C 357 362.541, 356.190 363.180, 353.924 365.750 M 379.624 365.799 C 378.630 367.408, 379.725 369.004, 381.809 368.985 C 382.863 368.975, 383.086 368.693, 382.400 368.235 C 381.795 367.831, 381.090 366.847, 380.833 366.049 C 380.488 364.977, 380.173 364.912, 379.624 365.799 M 138.500 377.651 C 142.845 379.927, 152 389.126, 152 391.216 C 152 392.197, 152.480 393, 153.067 393 C 155.056 393, 152.813 388.564, 148.626 384.216 C 144.086 379.502, 139.024 375.978, 136.882 376.040 C 136.122 376.062, 136.850 376.787, 138.500 377.651 M 360.525 382.466 C 362.747 385.177, 363.885 387.420, 363.439 388.207 C 362.873 389.206, 362.995 389.234, 363.975 388.329 C 364.987 387.394, 364.663 386.340, 362.371 383.110 C 360.792 380.884, 358.910 378.828, 358.190 378.540 C 357.469 378.252, 358.520 380.019, 360.525 382.466 M 137.984 387.520 C 136.945 388.771, 137.258 390.229, 139.757 395.770 C 141.425 399.471, 143.027 403.175, 143.317 404 C 143.649 404.949, 143.871 404.663, 143.921 403.221 C 143.964 401.968, 142.625 398.219, 140.945 394.891 C 138.532 390.111, 138.137 388.540, 139.067 387.419 C 139.715 386.639, 140.020 386, 139.745 386 C 139.470 386, 138.677 386.684, 137.984 387.520 M 120.125 396.027 C 119.976 401.416, 122.122 405, 125.498 405 C 126.809 405, 128.120 404.615, 128.411 404.144 C 128.702 403.674, 127.868 403.494, 126.558 403.744 C 123.752 404.281, 121.981 401.687, 120.930 395.500 C 120.250 391.500, 120.250 391.500, 120.125 396.027 M 360.516 394 C 361.011 394.825, 362.702 397.408, 364.273 399.741 C 365.880 402.127, 366.818 404.532, 366.418 405.241 C 365.866 406.217, 365.994 406.234, 366.987 405.316 C 368.018 404.363, 367.766 403.276, 365.691 399.736 C 364.275 397.319, 362.328 394.701, 361.366 393.920 C 359.838 392.680, 359.730 392.690, 360.516 394 M 350.242 397 C 351.082 398.412, 352.767 399.580, 354.115 399.685 C 355.987 399.830, 356.070 399.757, 354.500 399.345 C 353.400 399.056, 351.657 397.848, 350.627 396.660 C 348.754 394.500, 348.754 394.500, 350.242 397 M 172.111 399.934 C 174.646 401.527, 177.684 404.054, 178.861 405.550 C 180.142 407.179, 181 407.689, 181 406.822 C 181 404.990, 176.474 400.719, 172.300 398.614 C 167.194 396.039, 167.088 396.779, 172.111 399.934 M 372.507 397.989 C 372.168 398.537, 372.533 398.733, 373.327 398.428 C 374.332 398.042, 375.456 399.561, 377.100 403.528 C 378.388 406.634, 379.593 408.720, 379.780 408.161 C 379.966 407.602, 379.136 404.863, 377.936 402.073 C 375.873 397.277, 373.875 395.774, 372.507 397.989 M 226.762 398.707 C 228.006 398.946, 229.806 398.937, 230.762 398.687 C 231.718 398.437, 230.700 398.241, 228.500 398.252 C 226.300 398.263, 225.518 398.468, 226.762 398.707 M 237.250 399.735 C 239.863 399.941, 244.137 399.941, 246.750 399.735 C 249.363 399.529, 247.225 399.360, 242 399.360 C 236.775 399.360, 234.637 399.529, 237.250 399.735 M 254.250 399.716 C 255.762 399.945, 258.238 399.945, 259.750 399.716 C 261.262 399.487, 260.025 399.300, 257 399.300 C 253.975 399.300, 252.738 399.487, 254.250 399.716 M 325.147 400.670 C 326.053 400.910, 327.048 402.076, 327.358 403.260 C 327.667 404.444, 328.200 405.133, 328.541 404.792 C 329.632 403.702, 326.995 399.996, 325.215 400.116 C 323.682 400.220, 323.675 400.279, 325.147 400.670 M 407.469 408.250 C 401.500 414.500, 401.500 414.500, 407.750 408.531 C 413.556 402.987, 414.458 402, 413.719 402 C 413.564 402, 410.751 404.813, 407.469 408.250 M 357.962 404.546 C 356.899 405.827, 357.017 406.545, 358.650 408.733 C 359.734 410.186, 361.269 411.566, 362.061 411.802 C 363.208 412.143, 363.186 411.953, 361.951 410.865 C 358.485 407.812, 357.685 406.085, 359 404.500 C 359.685 403.675, 360.020 403, 359.745 403 C 359.470 403, 358.667 403.696, 357.962 404.546 M 326.353 407.522 C 325.740 409.120, 333.585 432.774, 335.301 434.500 C 336.441 435.648, 336.668 436.390, 331.480 422 C 329.397 416.225, 327.687 410.262, 327.680 408.750 C 327.665 405.668, 327.222 405.258, 326.353 407.522 M 307.847 414.215 C 311.338 415.894, 316.288 417.416, 318.847 417.598 C 323.134 417.902, 323.224 417.863, 320 417.109 C 318.075 416.658, 313.409 415.099, 309.631 413.645 C 300.648 410.186, 299.940 410.413, 307.847 414.215 M 222.500 416.334 C 223.600 417.215, 225.936 417.951, 227.691 417.968 C 231.346 418.005, 231.799 418.539, 233.546 424.873 C 234.821 429.500, 234.821 429.500, 234.911 425.885 C 235.026 421.238, 232.073 417.441, 227.785 416.722 C 225.978 416.418, 223.600 415.846, 222.500 415.451 C 220.500 414.731, 220.500 414.731, 222.500 416.334 M 269.343 421.363 C 271.175 423.762, 274.962 430.175, 277.759 435.613 C 282.234 444.312, 289 453.189, 289 450.361 C 289 449.804, 287.871 448.288, 286.491 446.991 C 285.110 445.695, 281.444 439.879, 278.344 434.067 C 272.501 423.114, 268.397 417, 266.888 417 C 266.407 417, 267.512 418.963, 269.343 421.363 M 167.500 424 C 166.647 425.650, 166.174 427, 166.449 427 C 166.724 427, 167.647 425.650, 168.500 424 C 169.353 422.350, 169.826 421, 169.551 421 C 169.276 421, 168.353 422.350, 167.500 424 M 211.480 427.033 C 209.928 429.543, 209.083 434.669, 209.644 438.173 C 210.329 442.462, 213.991 447.020, 216.702 446.960 C 218.040 446.930, 217.803 446.542, 215.775 445.441 C 214.276 444.628, 212.589 443.100, 212.025 442.047 C 210.696 439.563, 210.702 430.425, 212.035 427.934 C 213.098 425.948, 212.625 425.180, 211.480 427.033 M 164.643 428.769 C 164.238 429.423, 164.415 430.907, 165.035 432.065 C 166.544 434.885, 167.116 434.081, 166.156 430.490 C 165.666 428.657, 165.105 428.020, 164.643 428.769 M 307.042 431.750 C 307.220 434.938, 316 445.077, 316 442.096 C 316 441.518, 314.814 440.269, 313.364 439.319 C 311.914 438.369, 310.107 436.108, 309.350 434.296 C 308.072 431.238, 306.944 429.993, 307.042 431.750 M 221.269 434.693 C 222.242 434.947, 223.592 434.930, 224.269 434.656 C 224.946 434.382, 224.150 434.175, 222.500 434.195 C 220.850 434.215, 220.296 434.439, 221.269 434.693 M 228.396 435.951 C 229.988 436.476, 232.634 438.164, 234.275 439.702 C 236.626 441.906, 237.031 442.058, 236.184 440.418 C 234.598 437.344, 232.712 436.072, 228.905 435.505 C 225.585 435.010, 225.572 435.021, 228.396 435.951 M 260.667 435.667 C 259.289 437.044, 260.031 440, 261.750 439.985 C 263.151 439.972, 263.221 439.793, 262.104 439.086 C 261.337 438.600, 260.985 437.481, 261.323 436.601 C 261.977 434.897, 261.754 434.580, 260.667 435.667 M 241.750 464.740 C 245.188 464.936, 250.813 464.936, 254.250 464.740 C 257.688 464.545, 254.875 464.385, 248 464.385 C 241.125 464.385, 238.313 464.545, 241.750 464.740" stroke="none" fill="#e1c44f" fill-rule="evenodd"/><path d="M 224.500 29.029 C 173.999 34.747, 125.301 58.950, 89.500 96.125 C 11.601 177.014, 5.934 303.450, 76.301 390.604 C 90.397 408.063, 108.251 424.243, 127.500 437.003 C 192.968 480.400, 280.053 485.439, 350.101 449.882 C 385.567 431.879, 417.292 403.111, 437.767 370.386 C 459.731 335.280, 471 295.088, 471 251.855 C 471 200.258, 452.261 148.174, 419.760 109.438 C 384.647 67.589, 338.437 40.848, 284 30.874 C 271.797 28.639, 237.379 27.571, 224.500 29.029 M 230.500 37.684 C 157.334 44.037, 90.966 89.764, 57.529 156.859 C 46.799 178.389, 39.777 200.816, 36.572 223.795 C 34.512 238.567, 34.512 266.433, 36.572 281.205 C 48.629 367.645, 113.070 438.974, 197.042 458.826 C 220.401 464.348, 254.014 466.174, 276 463.115 C 318.082 457.260, 355.146 441.220, 385.743 415.622 C 435.524 373.975, 463.313 314.922, 463.210 251 C 463.169 225.391, 460.164 206.512, 452.387 183 C 423.478 95.610, 340.574 36.120, 249.158 37.168 C 241.096 37.261, 232.700 37.493, 230.500 37.684 M 254.534 50.945 C 254.132 51.595, 254.523 52.921, 255.402 53.892 C 258.110 56.885, 256.642 74.528, 253.385 78.127 C 252.324 79.299, 252.008 80.401, 252.574 80.954 C 253.637 81.995, 276.686 84.312, 277.986 83.508 C 279.280 82.709, 280.237 77.323, 279.499 74.997 C 278.864 72.995, 278.780 73.007, 275.787 75.525 C 273.380 77.551, 271.847 78.037, 268.613 77.801 C 264.934 77.532, 264.466 77.203, 264.178 74.690 C 263.584 69.510, 268.390 66.721, 269.600 71.544 C 270.761 76.168, 272.492 73.528, 272.796 66.670 C 273.079 60.272, 271.861 57.712, 270.529 61.908 C 269.873 63.975, 267.372 65.348, 265.910 64.444 C 264.592 63.630, 264.793 58.607, 266.200 57.200 C 268.299 55.101, 273.449 55.784, 276 58.500 C 277.292 59.875, 278.720 61, 279.174 61 C 280.507 61, 280.124 57.140, 278.474 53.950 C 277.028 51.154, 276.617 51, 270.614 51 C 267.130 51, 262.251 50.722, 259.771 50.382 C 256.780 49.972, 255.018 50.162, 254.534 50.945 M 216 52.542 C 212.975 53.238, 208.838 53.851, 206.807 53.904 C 204.195 53.972, 202.658 54.651, 201.557 56.223 C 199.536 59.108, 199.495 65.592, 201.493 66.359 C 202.984 66.931, 203.851 66.257, 206.452 62.502 C 208.427 59.650, 209.194 60.996, 210.588 69.762 C 211.651 76.452, 211.606 77.953, 210.251 80.843 C 208.913 83.697, 208.890 84.317, 210.092 85.078 C 211.964 86.263, 215.672 86.219, 220.214 84.957 C 225.128 83.593, 225.637 82.462, 222.554 79.752 C 220.794 78.204, 219.681 75.815, 218.997 72.114 C 216.911 60.843, 218.452 56.452, 222.923 60.923 C 225.209 63.209, 226.557 63.525, 227.502 61.997 C 228.146 60.956, 223.133 50.895, 222.091 51.138 C 221.766 51.214, 219.025 51.846, 216 52.542 M 313.667 61.667 C 313.300 62.033, 313 63.640, 313 65.236 C 313 69.455, 307.217 82.684, 304.406 84.895 C 303.083 85.936, 302 87.501, 302 88.374 C 302 90.277, 308.906 94, 312.435 94 C 314.630 94, 314.888 93.650, 314.463 91.250 C 313.851 87.795, 316.573 83.691, 317.973 85.957 C 318.465 86.753, 319.152 89.472, 319.500 92 C 319.848 94.528, 320.440 97.086, 320.816 97.685 C 322.300 100.050, 333.949 103.520, 332.781 101.250 C 330.579 96.973, 328.666 91.858, 327.357 86.749 C 325.779 80.587, 325.779 80.587, 329.024 77.687 C 331.797 75.209, 332.823 74.876, 336.074 75.396 C 340.856 76.160, 341.869 74.723, 338.262 72.290 C 331.461 67.704, 328 67.097, 328 70.491 C 328 71.954, 322.929 76, 321.096 76 C 318.952 76, 320.047 73.025, 322.991 70.849 C 325.861 68.727, 325.911 68.560, 324.241 66.712 C 322.782 65.099, 315.941 61, 314.707 61 C 314.501 61, 314.033 61.300, 313.667 61.667 M 163.700 69.081 C 158.687 71.743, 158.062 73.661, 161.331 76.347 C 164.971 79.339, 170.316 92.285, 169.481 96.088 C 169 98.277, 169.252 99.160, 170.495 99.637 C 172.490 100.402, 178.732 98.573, 181.500 96.412 C 183.466 94.877, 183.445 94.805, 180.287 92.133 C 176.425 88.867, 171.996 79.378, 171.129 72.513 C 170.395 66.695, 169.216 66.151, 163.700 69.081 M 367.676 90.657 C 367.304 91.029, 367 92.539, 367 94.013 C 367 97.472, 356.382 110.361, 353.147 110.828 C 349.652 111.332, 349.420 113.785, 352.557 117.060 C 356.098 120.756, 359 120.961, 359 117.516 C 359 114.675, 364.156 108.361, 365.698 109.314 C 366.261 109.662, 367.040 114.275, 367.428 119.566 C 368.218 130.320, 368.636 132, 370.522 132 C 371.241 132, 375.531 127.950, 380.055 123 C 384.585 118.044, 389.089 114, 390.081 114 C 393.340 114, 393.277 111.881, 389.916 108.414 C 385.864 104.233, 384 104.048, 384 107.826 C 384 109.570, 383.013 111.579, 381.419 113.076 C 378.891 115.451, 378.810 115.460, 377.419 113.559 C 376.639 112.491, 376 109.563, 376 107.052 C 376 104.541, 375.572 100.995, 375.050 99.173 C 374.025 95.600, 368.785 89.548, 367.676 90.657 M 118.127 98.624 C 113.412 102.659, 112.798 106.258, 116.730 106.817 C 119.386 107.194, 129.824 119.356, 130.621 123 C 131.515 127.092, 131.896 128, 132.719 127.995 C 133.844 127.989, 149.509 115.104, 149.454 114.231 C 149.297 111.762, 145.540 105, 144.324 105 C 143.303 105, 143.063 105.622, 143.523 107.072 C 144.526 110.231, 143.310 113.538, 140.710 114.722 C 137.559 116.158, 136.125 115.197, 130.084 107.605 C 126.433 103.017, 125 100.340, 125 98.108 C 125 94.015, 123.368 94.137, 118.127 98.624 M 222 97.958 C 157.042 109.844, 106.313 162.212, 96.513 227.500 C 94.753 239.222, 94.545 260.582, 96.082 271.633 C 100.717 304.958, 116.218 335.876, 140.543 360.311 C 162.381 382.248, 188.498 396.291, 220.306 403.199 C 235.216 406.437, 264.889 406.409, 280 403.143 C 321.411 394.194, 355.405 371.486, 378.161 337.571 C 390.640 318.972, 397.923 299.974, 401.533 276.600 C 403.898 261.287, 403.199 234.613, 400.049 220.030 C 387.028 159.733, 341.692 113.766, 281 99.324 C 266.164 95.793, 237.460 95.129, 222 97.958 M 238 102.172 C 186.837 105.532, 139.165 137.938, 115.163 185.675 C 99.315 217.196, 95.052 254.297, 103.468 287.473 C 110.342 314.570, 123.413 337.415, 143.584 357.582 C 169.795 383.788, 203.017 398.146, 241 399.684 C 277.566 401.165, 310.489 391.403, 338.560 370.756 C 348.313 363.583, 364.344 347.075, 371.854 336.471 C 383.251 320.378, 391.870 300.084, 396.207 279.123 C 399.383 263.773, 399.378 238.095, 396.195 222.237 C 385.113 167.020, 344.941 123.023, 291.444 107.510 C 274.088 102.477, 257.928 100.863, 238 102.172 M 189 134 C 187.878 136.200, 187.420 138, 187.982 138 C 188.545 138, 191.932 140.912, 195.508 144.471 C 202.012 150.943, 202.012 150.943, 198.537 156.375 C 195.666 160.863, 195.300 162.004, 196.433 162.945 C 198.028 164.268, 199.536 162.401, 205.348 151.904 C 209.658 144.119, 209.809 143, 206.547 143 C 202.404 143, 199.665 141.113, 195.575 135.442 C 193.416 132.449, 191.513 130, 191.345 130 C 191.178 130, 190.122 131.800, 189 134 M 88.149 133.696 C 83.466 136.004, 79.837 141.836, 79.756 147.185 C 79.549 160.880, 95.348 169.515, 106.363 161.727 C 115.742 155.096, 111.948 139.994, 99.300 133.614 C 95.270 131.582, 92.398 131.603, 88.149 133.696 M 410.090 138.250 C 409.007 141.082, 407.054 142.750, 399.330 147.439 C 395.025 150.053, 392.530 150.986, 391.075 150.524 C 386.659 149.122, 387.610 156.130, 392.562 161.473 C 395.459 164.599, 397.759 164.717, 398.180 161.761 C 398.582 158.947, 414.445 148.689, 417.094 149.530 C 418.050 149.833, 419.111 149.629, 419.453 149.076 C 420.111 148.011, 413.047 136.089, 411.725 136.033 C 411.299 136.015, 410.563 137.012, 410.090 138.250 M 86.447 145.059 C 84.125 147.624, 85.204 149.762, 90.075 152.248 C 94.484 154.499, 103.259 154.597, 105.070 152.416 C 106.910 150.198, 105.345 147.997, 99.975 145.250 C 94.367 142.382, 88.939 142.305, 86.447 145.059 M 227.691 154.039 C 216.246 157.749, 206.647 161.020, 206.359 161.307 C 206.072 161.594, 209.243 164.127, 213.405 166.936 C 221.295 172.260, 221.768 173.014, 222.236 181 C 222.393 183.681, 222.956 185.415, 223.629 185.290 C 228.054 184.468, 255.108 183.086, 259.306 183.468 C 278.396 185.202, 277.225 185.302, 276.498 181.993 C 275.134 175.782, 276.568 173.470, 285.228 167.915 C 293.137 162.841, 293.266 162.695, 290.910 161.461 C 289.585 160.767, 280.175 157.628, 270 154.485 C 259.825 151.343, 250.825 148.440, 250 148.033 C 249.110 147.594, 240.039 150.036, 227.691 154.039 M 305.284 150.750 C 304.285 153.501, 303.609 154, 300.878 154 C 297.651 154, 297.651 154, 299.947 156.444 C 301.842 158.461, 302.123 159.532, 301.553 162.571 C 300.862 166.254, 300.862 166.254, 303.584 164.112 C 306.082 162.148, 306.498 162.096, 308.618 163.485 C 311.807 165.575, 311.991 165.436, 310.667 161.928 C 309.672 159.293, 309.755 158.716, 311.253 157.878 C 313.555 156.590, 313.483 155, 311.122 155 C 308.794 155, 307.303 153.264, 306.828 150 C 306.477 147.592, 306.421 147.619, 305.284 150.750 M 191 164.418 C 191 165.198, 190.697 166.626, 190.326 167.592 C 189.811 168.934, 190.038 169.199, 191.290 168.719 C 193.152 168.004, 197 172.212, 197 174.963 C 197 177.317, 191.918 184.727, 187.062 189.453 C 183.345 193.070, 181.521 198, 183.900 198 C 185.882 198, 195.575 189.776, 198.202 185.866 C 201.388 181.121, 201.416 180.931, 199.721 175.500 C 197.175 167.344, 191 159.498, 191 164.418 M 185 169.313 C 185 170.035, 186.350 171.919, 188 173.500 C 191.490 176.844, 191.995 175.265, 188.812 170.960 C 186.481 167.806, 185 167.167, 185 169.313 M 296.748 174.244 C 296.167 175.970, 297.039 179, 298.117 179 C 299.286 179, 299.258 174.278, 298.085 173.553 C 297.582 173.242, 296.981 173.553, 296.748 174.244 M 303 175.941 C 303 178.989, 304.523 180.932, 305.235 178.794 C 305.835 176.994, 304.904 173, 303.883 173 C 303.398 173, 303 174.323, 303 175.941 M 181.036 175.250 C 181.096 177.324, 185.698 182.305, 186.880 181.574 C 187.599 181.130, 187.116 179.959, 185.491 178.207 C 184.121 176.729, 183 175.178, 183 174.760 C 183 174.342, 182.550 174, 182 174 C 181.450 174, 181.016 174.563, 181.036 175.250 M 309.484 175.189 C 309.126 176.118, 309.290 177.693, 309.849 178.689 C 310.786 180.358, 310.917 180.367, 311.516 178.811 C 311.874 177.882, 311.710 176.307, 311.151 175.311 C 310.214 173.642, 310.083 173.633, 309.484 175.189 M 315 176.441 C 315 177.784, 315.450 179.160, 316 179.500 C 316.583 179.861, 317 178.844, 317 177.059 C 317 175.377, 316.550 174, 316 174 C 315.450 174, 315 175.098, 315 176.441 M 430.540 176.956 C 428.218 179.522, 413.991 184.227, 409.789 183.819 C 406.975 183.546, 406.451 183.844, 406.164 185.879 C 405.741 188.866, 408.648 196.651, 410.443 197.340 C 411.182 197.623, 412.813 196.763, 414.068 195.428 C 416.245 193.110, 419 192.168, 419 193.741 C 419 194.149, 417.369 196.851, 415.376 199.745 C 411.752 205.007, 411.752 205.007, 413.634 210.241 C 416.169 217.295, 418.046 217.428, 421.503 210.798 C 429.786 194.913, 433.242 193.438, 440.867 202.535 C 443.657 205.865, 444.143 202.379, 441.668 196.783 C 439.230 191.271, 439.230 191.271, 434.245 191.750 C 430.976 192.065, 429.004 191.816, 428.517 191.028 C 427.326 189.100, 429.696 187.595, 433.743 187.710 C 438.158 187.835, 439.424 187.255, 438.221 185.661 C 437.739 185.022, 436.555 182.363, 435.589 179.750 C 433.631 174.448, 433.084 174.145, 430.540 176.956 M 290.015 179.750 C 290.034 181.930, 291.683 184.650, 292.494 183.839 C 293.343 182.991, 291.973 178, 290.892 178 C 290.401 178, 290.007 178.787, 290.015 179.750 M 177 180.826 C 177 181.813, 181.324 186, 182.344 186 C 182.738 186, 182.062 184.650, 180.842 183 C 178.692 180.092, 177 179.135, 177 180.826 M 215 183 C 215 184.100, 215.408 185, 215.906 185 C 216.405 185, 216.577 184.100, 216.290 183 C 216.002 181.900, 215.594 181, 215.383 181 C 215.173 181, 215 181.900, 215 183 M 63.349 183.176 C 60.392 184.607, 58.225 189.105, 56.089 198.243 C 54.633 204.468, 54.528 206.193, 55.550 207.042 C 56.436 207.777, 57.019 207.779, 57.470 207.049 C 58.501 205.380, 62.902 205.816, 71.352 208.423 C 76.081 209.882, 79.770 211.655, 80.629 212.881 C 81.432 214.027, 82.694 214.671, 83.517 214.355 C 85.438 213.618, 87.288 206.588, 86.502 203.009 C 85.925 200.381, 85.566 200.197, 81.293 200.343 C 76.705 200.500, 76.705 200.500, 76.602 194.855 C 76.492 188.753, 74.868 186.017, 69.802 183.398 C 66.684 181.785, 66.254 181.770, 63.349 183.176 M 174.005 186.076 C 174.002 186.942, 175.125 188.708, 176.500 190 C 179.697 193.003, 179.677 191.414, 176.469 187.500 C 174.829 185.499, 174.008 185.025, 174.005 186.076 M 298.538 186.939 C 298.218 187.456, 298.704 188.470, 299.618 189.190 C 300.531 189.911, 302.761 191.963, 304.572 193.750 C 308.563 197.689, 310.217 197.810, 312.927 194.365 C 316.956 189.243, 315.443 187.479, 306.310 186.650 C 302.128 186.270, 298.876 186.391, 298.538 186.939 M 210.486 188.443 C 208.844 189.137, 203.338 194.063, 198.250 199.390 C 190.443 207.565, 189 209.586, 189 212.347 C 189 215.879, 190.364 218.154, 193.460 219.783 C 195.011 220.599, 196.846 220.095, 202.279 217.360 C 206.051 215.460, 211.617 213.408, 214.646 212.799 C 219.613 211.802, 220.082 211.487, 219.432 209.597 C 219.036 208.443, 218.593 203.811, 218.447 199.303 C 218.302 194.795, 217.892 190.635, 217.536 190.058 C 216.138 187.796, 213.468 187.184, 210.486 188.443 M 279.991 195.142 C 279.987 199.739, 279.711 205.758, 279.380 208.517 C 278.777 213.534, 278.777 213.534, 286.138 215.886 C 290.187 217.180, 295.272 219.084, 297.438 220.119 C 302.702 222.634, 304.467 222.494, 306.927 219.365 C 309.711 215.826, 309.537 212.845, 306.376 209.924 C 304.932 208.591, 300.627 203.778, 296.808 199.229 C 289.444 190.456, 287.160 188.543, 282.750 187.459 C 280 186.783, 280 186.783, 279.991 195.142 M 253 189.476 C 251.625 190.271, 249.897 191.228, 249.159 191.603 C 248.422 191.977, 246.269 191.545, 244.375 190.642 C 242.020 189.519, 238.250 189, 232.441 189 C 224.144 189, 223.927 189.061, 222.927 191.691 C 221.992 194.152, 222.301 201.149, 223.665 208.355 C 224.006 210.159, 226.887 213.837, 231.496 218.355 C 240.007 226.695, 240.986 229.189, 240.994 242.538 C 240.999 249.932, 241.409 252.377, 243.250 255.980 C 246.570 262.477, 249.537 264.207, 258.332 264.771 C 265.047 265.202, 265.903 265.049, 266.868 263.247 C 267.836 261.437, 267.503 261.121, 263.422 259.978 C 260.938 259.283, 257.576 257.472, 255.952 255.955 C 253.112 253.302, 253 252.863, 253.006 244.349 C 253.014 230.639, 253.823 228.814, 264.267 218.926 C 274.344 209.385, 276.020 206.051, 275.647 196.282 C 275.491 192.197, 274.949 190.436, 273.528 189.396 C 270.896 187.472, 256.366 187.528, 253 189.476 M 63.750 192.689 C 61.568 193.259, 61.450 196.575, 63.582 197.393 C 64.452 197.727, 66.702 198, 68.582 198 C 71.347 198, 72 197.613, 72 195.975 C 72 194.722, 71.023 193.579, 69.435 192.975 C 66.755 191.956, 66.587 191.948, 63.750 192.689 M 229 198.800 C 229 201.764, 231.128 203, 236.231 203 C 239.622 203, 241.236 202.549, 241.643 201.487 C 242.728 198.659, 240.042 197, 234.378 197 C 229.866 197, 229 197.290, 229 198.800 M 256.944 198.844 C 255.573 199.954, 254.903 201.306, 255.261 202.238 C 255.762 203.543, 256.620 203.628, 260.678 202.779 C 265.998 201.665, 268 200.461, 268 198.378 C 268 196.235, 259.735 196.584, 256.944 198.844 M 332 203.540 C 331.175 203.720, 328.813 204.142, 326.750 204.479 C 322.301 205.205, 322.034 206.661, 324.814 215.035 C 326.481 220.058, 326.618 224.777, 326.504 273.326 C 326.379 326.153, 326.379 326.153, 323.189 328.649 C 321.165 330.233, 320 332.032, 320 333.572 C 320 337.838, 316.767 336.017, 312.745 329.485 C 311.385 327.277, 309.589 324.904, 308.755 324.212 C 305.337 321.375, 295.526 319.754, 281 319.627 C 267.681 319.510, 266.067 319.696, 261.183 321.902 C 255.780 324.343, 251 329.661, 251 333.232 C 251 336.285, 249.199 335.184, 245.085 329.615 C 239.731 322.367, 234.788 320.051, 223.058 319.291 C 218.076 318.968, 214 318.363, 214 317.946 C 214 317.529, 216.139 316.894, 218.752 316.534 C 226.600 315.455, 238.358 318.985, 245.785 324.650 C 249.580 327.544, 249.226 327.629, 258.883 321.502 C 261.844 319.623, 266.638 317.594, 269.535 316.993 C 275.642 315.725, 290.156 316.284, 294.441 317.951 C 298.432 319.504, 307.367 318.286, 310.593 315.748 C 312.887 313.944, 312.998 313.569, 311.641 312.212 C 309.997 310.568, 298.683 309.882, 293.819 311.132 C 290.474 311.991, 287.401 310.003, 288.330 307.581 C 288.691 306.642, 288.291 304.529, 287.441 302.887 C 285.301 298.748, 286.362 296, 290.100 296 C 291.730 296, 294.680 295.325, 296.654 294.500 C 298.629 293.675, 301.089 293, 302.122 293 C 304.355 293, 304.555 291.412, 302.571 289.429 C 300.547 287.404, 299.786 287.611, 296.813 291 C 294.694 293.415, 293.383 294, 290.090 294 C 285.464 294, 285.771 295.040, 285.122 277.133 C 285.014 274.140, 284.751 273.838, 282.750 274.407 C 275.897 276.359, 275 276.326, 275 274.125 C 275 271.598, 275.151 271.621, 270.739 273.464 C 268.530 274.388, 267.011 275.822, 266.628 277.345 C 265.936 280.102, 260.697 282.992, 256.349 283.015 C 254.782 283.024, 252.825 283.482, 252 284.034 C 250.667 284.925, 250.667 285.138, 252 285.950 C 252.825 286.452, 254.400 287.555, 255.500 288.400 C 257.409 289.866, 257.331 289.938, 253.800 289.968 C 251.330 289.989, 249.782 289.434, 249.146 288.297 C 248.351 286.875, 247.935 286.809, 246.625 287.896 C 244.736 289.464, 237.767 291.185, 238.570 289.886 C 238.876 289.391, 240.448 288.302, 242.063 287.467 C 243.679 286.632, 245 285.620, 245 285.218 C 245 283.822, 239.474 282.089, 235.254 282.162 C 232.919 282.203, 229.994 281.565, 228.754 280.745 C 225.124 278.343, 216.118 268.948, 215.460 266.875 C 214.016 262.325, 213.128 266.848, 213.612 276.282 C 214.091 285.602, 214.002 286.332, 212.594 284.594 C 210.014 281.406, 208 272.616, 208 264.541 C 208 258.199, 207.470 255.660, 204.900 249.695 C 203.195 245.738, 200.918 239.865, 199.841 236.644 C 198.015 231.183, 197.994 230.664, 199.539 228.957 C 200.450 227.950, 200.900 226.648, 200.539 226.063 C 198.048 222.032, 191.663 229.973, 187.603 242.149 C 182.333 257.955, 181.510 280.609, 185.851 290.405 C 188.532 296.454, 189.501 295.982, 187.570 289.568 C 186.013 284.393, 186.445 281.573, 188.665 282.425 C 190.655 283.189, 199.270 279.730, 201.882 277.118 C 203.087 275.913, 204.494 275.187, 205.009 275.506 C 206.198 276.241, 210 288.450, 210 291.534 C 210 292.812, 210.699 294.556, 211.553 295.411 C 212.809 296.666, 213.049 299.047, 212.803 307.812 C 212.500 318.660, 212.500 318.660, 203 319.854 C 189.109 321.599, 189.465 321.411, 184.024 329.856 C 181.329 334.037, 179.245 337.578, 179.392 337.725 C 179.539 337.872, 192.630 337.255, 208.483 336.354 C 235.238 334.833, 237.636 334.833, 241.903 336.362 C 247.717 338.446, 251.860 338.440, 257.106 336.341 C 260.874 334.833, 263.360 334.795, 284.376 335.919 C 316.812 337.653, 344.300 338.393, 347.403 337.614 C 349.312 337.135, 349.765 336.616, 349.052 335.727 C 348.512 335.052, 346.627 332.778, 344.865 330.674 C 340.806 325.829, 339.855 320.279, 341.065 308.500 C 341.573 303.550, 342.134 281.500, 342.311 259.500 C 342.623 220.738, 342.701 219.355, 344.830 214.826 C 347.514 209.114, 346.451 205.430, 341.862 204.549 C 336.493 203.519, 333.501 203.213, 332 203.540 M 153.750 204.654 C 151.476 205.050, 151 205.646, 151 208.099 C 151 209.730, 151.725 212.737, 152.611 214.782 C 153.986 217.958, 154.338 226.153, 155.024 270.978 C 155.573 306.886, 155.498 324.070, 154.786 325.399 C 154.214 326.468, 152.429 328.451, 150.820 329.805 C 148.706 331.584, 147.977 332.994, 148.196 334.884 C 148.500 337.500, 148.500 337.500, 163.250 337.777 C 171.363 337.929, 178 337.787, 178 337.461 C 178 336.174, 175.626 332.362, 173.217 329.778 C 170.679 327.055, 170.679 327.055, 170.811 273.033 C 170.925 226.704, 171.161 218.589, 172.472 216.055 C 174.396 212.333, 174.438 207.609, 172.560 206.050 C 171.035 204.784, 158.389 203.846, 153.750 204.654 M 216.563 216.898 C 216.258 217.392, 213.756 218.606, 211.004 219.596 C 208.252 220.585, 206 221.778, 206 222.245 C 206 222.713, 207.124 224.137, 208.497 225.410 C 209.871 226.683, 211.277 229.137, 211.622 230.862 C 211.968 232.588, 212.655 234, 213.150 234 C 213.645 234, 214.498 235.238, 215.045 236.750 C 216.936 241.972, 221.203 251.104, 222.500 252.703 C 223.050 253.382, 224.625 255.359, 226 257.097 C 230.180 262.378, 234.684 267, 235.652 267 C 237.401 267, 240 272.830, 240 276.752 C 240 280.388, 240.314 280.838, 244.010 282.504 C 248.920 284.719, 253 283.468, 253 279.749 C 253 276.758, 258.596 270, 261.073 270 C 262.133 270, 263 269.383, 263 268.629 C 263 267.667, 260.599 266.952, 254.940 266.230 C 245.914 265.077, 243.741 263.728, 240.881 257.500 C 239.491 254.473, 239.039 251.047, 239.022 243.417 C 239 233.333, 239 233.333, 235.250 229.560 C 233.188 227.485, 229.594 224.468, 227.265 222.856 C 224.936 221.243, 222.557 219.042, 221.980 217.962 C 220.903 215.950, 217.555 215.292, 216.563 216.898 M 271.162 218.899 C 269.698 220.455, 265.901 223.366, 262.724 225.368 C 259.456 227.428, 256.524 230.121, 255.974 231.570 C 254.595 235.196, 254.792 249.019, 256.265 252 C 257.503 254.505, 264.075 258.258, 269.272 259.426 C 271.384 259.901, 272.194 259.626, 272.674 258.275 C 273.700 255.386, 276.179 253, 278.155 253 C 279.309 253, 280 252.279, 280 251.077 C 280 250.019, 281.230 247.692, 282.734 245.905 C 284.259 244.092, 285.344 241.714, 285.188 240.524 C 285.026 239.289, 286.060 237.151, 287.644 235.446 C 289.653 233.283, 290.431 231.340, 290.568 228.140 C 290.753 223.841, 290.689 223.752, 286.128 221.873 C 283.582 220.825, 279.773 219.090, 277.662 218.019 C 273.824 216.070, 273.824 216.070, 271.162 218.899 M 294.402 225.394 C 293.461 227.847, 296.507 230.893, 298.204 229.196 C 299.162 228.238, 298.958 227.513, 297.250 225.806 C 295.246 223.801, 295.026 223.769, 294.402 225.394 M 433.638 230.750 C 431.714 236.365, 431.785 236.328, 423.500 236.069 C 419.500 235.944, 419.500 235.944, 422.033 238.222 C 423.426 239.475, 425.634 241.203, 426.941 242.061 C 429.309 243.617, 429.311 243.638, 427.658 248.489 C 425.327 255.331, 425.484 255.553, 430.197 252.087 C 432.505 250.389, 434.893 249, 435.503 249 C 436.113 249, 438.136 250.125, 440 251.500 C 444.546 254.854, 445.366 254.648, 442.989 250.750 C 440.223 246.213, 440.483 244.631, 444.500 241.568 C 446.425 240.100, 448 238.471, 448 237.949 C 448 237.427, 445.777 237, 443.059 237 C 437.435 237, 436.781 236.353, 435.995 230 C 435.437 225.500, 435.437 225.500, 433.638 230.750 M 61.861 231 C 60.342 235.500, 60.342 235.500, 54.671 235.800 C 51.552 235.965, 49.010 236.415, 49.021 236.800 C 49.033 237.185, 50.833 238.767, 53.021 240.315 C 57.462 243.456, 57.610 244.019, 55.544 249.874 C 53.844 254.694, 54.733 255.068, 59.411 251.500 C 63.515 248.370, 64.323 248.382, 68.594 251.639 C 72.872 254.903, 73.746 254.272, 71.058 249.863 C 68.262 245.277, 68.408 244.658, 73 241.619 C 75.200 240.163, 77 238.552, 77 238.038 C 77 237.525, 74.684 236.969, 71.853 236.802 C 66.355 236.479, 65.802 235.983, 64.274 230 C 63.380 226.500, 63.380 226.500, 61.861 231 M 299.073 231.635 C 297.933 233.084, 297 235.041, 297 235.984 C 297 236.927, 295.694 239.644, 294.097 242.021 C 292.501 244.398, 291.425 246.944, 291.707 247.679 C 291.989 248.414, 291.442 250.203, 290.491 251.655 C 288.064 255.358, 288.039 278.669, 290.462 278.206 C 291.308 278.045, 292 278.382, 292 278.956 C 292 279.530, 292.450 280, 293 280 C 294.070 280, 298 276.393, 298 275.410 C 298 274.136, 302.615 271.065, 304.576 271.033 C 307.187 270.991, 310.368 274.449, 311.905 279 C 313.039 282.356, 312.943 282.634, 309.559 285.750 C 307.618 287.538, 306.264 289, 306.550 289 C 307.777 289, 312.161 285.568, 313.045 283.916 C 314.427 281.333, 312.407 256.121, 310.113 247.334 C 308.556 241.368, 302.745 229, 301.499 229 C 301.304 229, 300.212 230.186, 299.073 231.635 M 289.667 235.667 C 288.386 236.948, 289.014 239.791, 290.724 240.447 C 293.222 241.406, 295.392 238.249, 293.521 236.378 C 292.016 234.873, 290.703 234.631, 289.667 235.667 M 284 247.883 C 284 248.991, 284.919 250.007, 286.233 250.351 C 289.417 251.183, 290.854 249.356, 288.446 247.536 C 285.761 245.505, 284 245.643, 284 247.883 M 277 257.378 C 277 260.656, 279.491 262.667, 281.493 261.006 C 282.796 259.924, 282.701 259.467, 280.743 257.401 C 277.898 254.399, 277 254.394, 277 257.378 M 283 263.015 C 281.667 263.891, 281.667 264.109, 283 264.985 C 285.262 266.469, 285.867 266.209, 285.290 264 C 285.002 262.900, 284.707 262.007, 284.633 262.015 C 284.560 262.024, 283.825 262.474, 283 263.015 M 269.406 264.152 C 268.610 265.440, 271.577 268, 273.865 268 C 274.946 268, 274.710 267.321, 273 265.500 C 270.289 262.615, 270.344 262.635, 269.406 264.152 M 276.667 265.667 C 275.736 266.598, 275.861 271.233, 276.860 272.808 C 277.742 274.198, 282.551 273.535, 283.573 271.882 C 283.877 271.390, 283.167 269.639, 281.995 267.993 C 279.936 265.101, 278.054 264.279, 276.667 265.667 M 269 269 C 269 269.550, 269.702 270, 270.559 270 C 271.416 270, 271.840 269.550, 271.500 269 C 271.160 268.450, 270.459 268, 269.941 268 C 269.423 268, 269 268.450, 269 269 M 78.037 272.402 C 77.266 274.430, 75.751 275.122, 68.312 276.841 C 53.190 280.337, 52.338 280.411, 51.102 278.342 C 50.038 276.561, 49.953 276.563, 48.516 278.420 C 46.863 280.557, 47.312 286.152, 49.587 291.764 C 51.410 296.261, 53.525 296.805, 56.542 293.550 C 60.009 289.809, 62.847 290.471, 64.539 295.417 C 66.705 301.747, 70.163 304.500, 75.949 304.500 C 83.101 304.500, 86.525 301.680, 86.425 295.870 C 86.336 290.642, 81.069 270, 79.824 270 C 79.344 270, 78.540 271.081, 78.037 272.402 M 446.618 271.488 C 445.584 272.272, 442.209 273.414, 439.118 274.027 C 421.061 277.608, 412 281.953, 412 287.033 C 412 288.089, 413.012 289.564, 414.250 290.311 C 415.488 291.057, 422.037 294.928, 428.805 298.913 C 437.290 303.910, 441.404 306.933, 442.058 308.652 C 442.665 310.249, 443.634 311.026, 444.753 310.813 C 446.123 310.552, 446.556 309.296, 446.759 304.990 C 447.054 298.751, 445.845 295.755, 443.842 297.758 C 443.159 298.441, 441.731 299, 440.670 299 C 438.967 299, 438.801 298.457, 439.260 294.388 C 439.573 291.613, 440.600 288.955, 441.840 287.716 C 443.900 285.655, 443.900 285.655, 445.700 287.822 C 446.844 289.198, 447.963 289.691, 448.771 289.172 C 451.215 287.603, 451.640 269.927, 449.231 270.032 C 448.829 270.049, 447.653 270.705, 446.618 271.488 M 259 275.031 C 259 278.206, 260.838 279.660, 263.541 278.622 C 264.857 278.118, 264.756 277.589, 262.853 275.015 C 260.031 271.198, 259 271.203, 259 275.031 M 194.250 285.651 C 191.912 286.485, 190 287.804, 190 288.583 C 190 290.365, 190.191 290.357, 196.682 288.311 C 199.629 287.382, 201.882 286.145, 201.687 285.561 C 201.152 283.951, 198.940 283.978, 194.250 285.651 M 75 287.249 C 69.343 288.403, 67.147 290.267, 68.923 292.407 C 71.124 295.059, 81 291.894, 81 288.536 C 81 286.448, 79.990 286.231, 75 287.249 M 428.750 288.162 C 427.238 288.715, 426 289.788, 426 290.548 C 426 292.209, 429.080 294, 431.934 294 C 433.628 294, 434 293.370, 434 290.500 C 434 286.760, 433.365 286.477, 428.750 288.162 M 197.250 292.769 C 193.259 294.313, 191.400 297, 194.322 297 C 197.225 297, 205.070 293.709, 204.714 292.640 C 204.139 290.914, 201.945 290.952, 197.250 292.769 M 308.289 294.380 C 306.507 296.088, 306.132 297.427, 306.359 301.270 C 306.674 306.596, 308.274 309.126, 310.144 307.256 C 311.004 306.396, 310.979 305.364, 310.047 303.114 C 309.075 300.766, 309.065 299.333, 310.003 296.492 C 311.469 292.049, 311.141 291.646, 308.289 294.380 M 313.425 297.335 C 312.520 299.692, 313.776 303.977, 315.573 304.666 C 317.939 305.574, 318.381 304.348, 316.974 300.782 C 315.214 296.320, 314.194 295.330, 313.425 297.335 M 200.148 300.804 C 195.852 302.478, 194.590 304.226, 197.272 304.790 C 198.030 304.949, 200.851 304.136, 203.541 302.982 C 207.300 301.371, 208.093 300.671, 206.966 299.958 C 205.136 298.800, 205.365 298.772, 200.148 300.804 M 292.738 302.250 C 292.477 302.938, 292.667 304.589, 293.162 305.920 C 294.371 309.174, 296.342 307.212, 295.447 303.645 C 294.739 300.825, 293.519 300.197, 292.738 302.250 M 300.719 301.615 C 299.369 302.964, 299.955 307, 301.500 307 C 303.097 307, 303.304 305.627, 302.148 302.698 C 301.757 301.707, 301.114 301.219, 300.719 301.615 M 202.750 306.689 C 200.377 307.310, 200.535 308.301, 203.750 312.949 C 206.516 316.947, 208.739 318.368, 207.605 315.413 C 207.270 314.539, 206.714 312.064, 206.370 309.913 C 206.026 307.761, 205.464 306.052, 205.122 306.116 C 204.780 306.180, 203.713 306.438, 202.750 306.689 M 246.336 309.567 C 246.005 310.429, 246.214 311.614, 246.800 312.200 C 248.355 313.755, 251 312.390, 251 310.031 C 251 307.565, 247.247 307.192, 246.336 309.567 M 406.575 311.250 C 403.663 315.703, 401.003 322.844, 401.639 324.502 C 402.120 325.754, 403.029 326.044, 405.149 325.620 C 408.433 324.963, 413 326.705, 413 328.613 C 413 331.033, 410.702 334.960, 408.963 335.512 C 406.060 336.433, 401.929 333.895, 401.312 330.811 C 401.003 329.265, 400.374 328, 399.914 328 C 397.129 328, 391.417 338.821, 392.185 342.641 C 392.467 344.043, 393.300 344.430, 395.573 344.214 C 401.258 343.674, 417.356 352.177, 419.042 356.610 C 421.187 362.252, 428 355.212, 428 347.352 C 428 343, 428 343, 423.611 343 C 420.805 343, 418.384 342.322, 416.900 341.120 C 414.578 339.240, 414.578 339.240, 417.039 335.627 C 418.393 333.640, 420.026 332.011, 420.669 332.007 C 423.069 331.993, 427.924 335.561, 428.471 337.741 C 429.315 341.101, 432.661 340.596, 435.035 336.750 C 437.642 332.527, 438.367 329.597, 437.579 326.460 C 437.022 324.238, 436.539 323.988, 433.721 324.458 C 428.927 325.259, 413.087 316.763, 411 312.272 C 409.215 308.429, 408.524 308.269, 406.575 311.250 M 88.588 313.829 C 87.456 316.018, 85.070 317.583, 78.796 320.250 C 67.680 324.975, 66.156 325.374, 64.496 323.997 C 60.503 320.683, 59.826 327.751, 63.451 334.904 C 66.340 340.605, 69.543 342.097, 71.180 338.504 C 72.702 335.164, 87.055 328.644, 93.236 328.484 C 98.747 328.342, 99.494 327.865, 98.158 325.347 C 97.619 324.331, 95.925 320.885, 94.395 317.689 C 92.864 314.493, 91.268 311.665, 90.848 311.406 C 90.429 311.147, 89.412 312.237, 88.588 313.829 M 100 338.799 C 100 342.307, 85.054 354.407, 79.470 355.420 C 74.858 356.256, 74.493 357.459, 77.365 362.361 C 80.184 367.171, 84.652 371.283, 86.419 370.694 C 87.014 370.496, 87.659 369.472, 87.853 368.417 C 88.307 365.952, 90.924 363, 92.655 363 C 94.385 363, 94.369 363.216, 92.027 371.406 C 90.054 378.305, 90.054 378.305, 93.536 383.049 C 98.917 390.380, 101.727 390.730, 101.818 384.081 C 101.887 379.077, 104.767 367.201, 106.628 364.250 C 108.559 361.186, 116.188 361.029, 118.732 364 C 120.584 366.163, 124 366.716, 124 364.853 C 124 364.222, 122.313 361.662, 120.250 359.163 C 118.188 356.665, 116.037 354.005, 115.471 353.252 C 114.621 352.122, 114.026 352.243, 112.068 353.941 C 110.762 355.074, 108.413 356, 106.847 356 C 105.281 356, 103.662 356.024, 103.250 356.053 C 102.838 356.082, 102.370 355.487, 102.211 354.731 C 101.872 353.118, 106.036 351, 109.547 351 C 112.967 351, 112.576 349.347, 107.655 343.003 C 103.126 337.165, 100 335.449, 100 338.799 M 272.250 349.794 C 265.560 350.065, 263.502 350.956, 266 352.500 C 266.550 352.840, 267 355.765, 267 359 C 267 362.235, 266.550 365.160, 266 365.500 C 263.301 367.168, 265.775 368, 273.433 368 C 281.122 368, 281.924 367.815, 282.532 365.899 C 283.418 363.108, 281.711 361.439, 280.035 363.458 C 278.462 365.354, 273.403 365.493, 272.700 363.659 C 272.008 361.856, 273.943 358.984, 274.659 360.750 C 275.773 363.494, 278 361.994, 278 358.500 C 278 354.725, 276.699 353.937, 275.112 356.750 C 274.310 358.172, 273.883 358.260, 272.835 357.222 C 271.879 356.276, 271.826 355.499, 272.630 354.222 C 274.154 351.802, 276.816 351.523, 279.054 353.548 C 280.850 355.175, 280.996 355.175, 281.616 353.559 C 282.756 350.588, 279.998 349.480, 272.250 349.794 M 164.543 350.931 C 164.226 351.443, 164.425 352.144, 164.984 352.490 C 166.298 353.302, 166.313 364.689, 165 365.500 C 162.658 366.947, 164.343 368, 169 368 C 172.778 368, 174 367.633, 174 366.500 C 174 365.675, 173.550 365, 173 365 C 172.446 365, 172 362.353, 172 359.059 C 172 355.791, 172.450 352.840, 173 352.500 C 173.550 352.160, 174 351.459, 174 350.941 C 174 349.719, 165.297 349.710, 164.543 350.931 M 175.570 350.887 C 175.269 351.374, 175.692 352.329, 176.511 353.009 C 178.215 354.423, 178.601 363.510, 177 364.500 C 174.643 365.957, 176.068 368, 179.441 368 C 183.400 368, 184.640 366.776, 182.489 364.991 C 181.670 364.311, 181 363.162, 181 362.437 C 181 359.513, 183.317 360.038, 187.522 363.914 C 194.060 369.940, 195 369.518, 195 360.559 C 195 356.466, 195.450 352.840, 196 352.500 C 198.083 351.213, 196.870 350, 193.500 350 C 189.650 350, 189.500 350.197, 191.093 353.173 C 191.883 354.650, 191.883 355.517, 191.091 356.309 C 190.299 357.101, 188.951 356.381, 186.206 353.701 C 183.459 351.019, 181.549 350, 179.267 350 C 177.535 350, 175.871 350.399, 175.570 350.887 M 199.848 358 C 200.104 363.630, 199.867 366, 199.047 366 C 198.406 366, 198.160 366.450, 198.500 367 C 198.840 367.550, 202.382 368, 206.370 368 C 212.199 368, 214.037 367.614, 215.733 366.034 C 218.495 363.461, 219.336 360.603, 218.555 356.442 C 217.630 351.511, 214.808 350, 206.520 350 C 199.485 350, 199.485 350, 199.848 358 M 223.495 352.414 C 220.181 355.729, 219.508 359.147, 221.436 362.875 C 223.821 367.488, 228.359 369.509, 233.126 368.080 C 237.827 366.672, 240 363.717, 240 358.732 C 240 353.182, 236.538 350, 230.500 350 C 226.980 350, 225.346 350.563, 223.495 352.414 M 242 350.941 C 242 351.459, 242.450 352.160, 243 352.500 C 244.313 353.311, 244.298 364.698, 242.984 365.510 C 241.253 366.580, 242.973 368, 246 368 C 249.027 368, 250.747 366.580, 249.016 365.510 C 247.536 364.595, 247.770 360, 249.297 360 C 250.010 360, 252.352 361.800, 254.500 364 C 260.106 369.741, 261 369.338, 261 361.071 C 261 356.347, 261.462 353.681, 262.452 352.690 C 264.351 350.792, 263.433 350, 259.333 350 C 256.105 350, 254.953 351.235, 257 352.500 C 258.061 353.156, 258.411 357, 257.409 357 C 257.084 357, 254.978 355.425, 252.729 353.500 C 249.836 351.024, 247.669 350, 245.320 350 C 243.494 350, 242 350.423, 242 350.941 M 287.185 350.684 C 285.172 351.489, 283.842 355.836, 284.965 357.935 C 285.496 358.927, 287.521 360.494, 289.465 361.417 C 291.409 362.339, 293 363.523, 293 364.047 C 293 365.850, 288.026 365.014, 286.768 363 C 285.097 360.325, 284 360.475, 284 363.378 C 284 366.737, 286.363 368.295, 291.625 368.405 C 295.414 368.484, 296.568 368.039, 298.549 365.737 C 301.617 362.171, 300.642 359.144, 295.652 356.742 C 293.643 355.775, 292 354.538, 292 353.992 C 292 352.555, 293.724 352.773, 296.443 354.554 C 299.258 356.399, 300.630 355.046, 299.011 352.021 C 298.150 350.411, 296.971 350.016, 293.215 350.079 C 290.622 350.122, 287.908 350.395, 287.185 350.684 M 302.549 352.250 C 303.605 355.291, 303.687 362.987, 302.691 365.724 C 301.891 367.922, 301.992 367.948, 310.986 367.906 C 319.518 367.865, 320.053 367.741, 319.478 365.931 C 318.951 364.269, 319.363 364, 322.433 364 C 325.900 364, 327.273 365.361, 324.750 366.297 C 324.062 366.553, 324.815 367.284, 326.424 367.922 C 330.891 369.695, 337.470 367.644, 334.065 365.540 C 333.550 365.222, 331.954 362.395, 330.518 359.258 C 327.278 352.181, 325.353 350, 322.345 350 C 320.586 350, 319.995 350.562, 319.978 352.250 C 319.942 356.035, 314.520 365.500, 312.388 365.500 C 310.785 365.500, 310.454 364.609, 310.196 359.604 C 310.028 356.362, 310.366 353.234, 310.946 352.654 C 312.957 350.643, 311.974 350, 306.883 350 C 302.012 350, 301.804 350.108, 302.549 352.250 M 206.820 354.250 C 206.644 355.488, 206.660 358.438, 206.855 360.806 C 207.164 364.550, 207.490 365.072, 209.355 364.806 C 213.604 364.200, 212.311 352, 207.998 352 C 207.526 352, 206.995 353.012, 206.820 354.250 M 377.336 358.337 C 372.037 363.827, 369.705 369.100, 370.752 373.226 C 372.204 378.948, 377.190 383, 382.781 383 C 384.365 383, 387.875 381.877, 390.581 380.504 C 393.286 379.131, 396.288 378.006, 397.250 378.004 C 399.594 377.999, 399.467 380.533, 397 383 C 395.170 384.830, 393.729 385.190, 387.306 385.421 C 382.998 385.576, 382.577 387.575, 386.260 390.385 C 390.090 393.306, 393.770 393.692, 397.800 391.595 C 407.777 386.404, 410.236 373.966, 402.802 366.295 C 398.076 361.420, 396.742 361.358, 388.444 365.628 C 382.664 368.602, 380.774 369.174, 379.832 368.232 C 377.970 366.370, 382.554 362.095, 387.214 361.350 C 389.321 361.013, 391.309 360.310, 391.631 359.787 C 392.514 358.359, 386.928 353, 384.557 353 C 383.367 353, 380.299 355.267, 377.336 358.337 M 227 356.453 C 227 359.559, 228.877 363.739, 230.562 364.386 C 233.884 365.660, 234.802 358.876, 231.797 355.256 C 229.935 353.012, 227 353.745, 227 356.453 M 320.655 358.458 C 320.240 359.539, 320.677 360, 322.115 360 C 323.254 360, 323.991 359.472, 323.771 358.813 C 323.154 356.961, 321.310 356.751, 320.655 358.458 M 132.500 376.850 C 124.110 379.578, 121.754 387.634, 126.568 397.134 C 129.465 402.852, 129.198 405, 125.588 405 C 122.012 405, 120 401.499, 120 395.277 C 120 389.697, 119.271 388.898, 116.783 391.750 C 113.522 395.489, 112.822 397.931, 113.994 401.483 C 115.941 407.381, 126.128 415, 132.067 415 C 137.820 415, 144.776 408.446, 143.381 404.340 C 143.037 403.328, 141.385 399.442, 139.709 395.705 C 136.850 389.328, 136.766 388.805, 138.350 387.222 C 140.805 384.766, 143.167 386.650, 145.081 392.593 C 146.805 397.943, 149.440 399.486, 151.662 396.447 C 153.657 393.719, 152.219 389.986, 147.127 384.669 C 143.359 380.735, 136.058 375.664, 134.790 376.100 C 134.630 376.155, 133.600 376.492, 132.500 376.850 M 348 385.629 C 343.325 389.198, 338.180 393.127, 336.568 394.362 C 333.109 397.010, 333.551 400, 337.402 400 C 339.092 400, 340.950 401.334, 343.320 404.250 C 348.960 411.190, 353 418.210, 353 421.073 C 353 426.303, 355.183 426.416, 362.119 421.544 C 367.807 417.548, 373.863 413.416, 378.301 410.500 C 379.633 409.625, 379.504 408.775, 377.269 403.714 C 375.864 400.532, 374.216 398.094, 373.607 398.296 C 372.998 398.498, 372.240 400.572, 371.923 402.906 C 371.508 405.953, 370.522 407.830, 368.423 409.565 C 364.763 412.589, 361.305 412.316, 358.688 408.796 C 357.022 406.555, 356.898 405.828, 357.962 404.546 C 359.604 402.568, 362.395 402.566, 364.035 404.542 C 364.822 405.491, 365.673 405.727, 366.243 405.157 C 367.392 404.008, 359.117 390.794, 357.573 391.311 C 356.983 391.508, 356.500 393.432, 356.500 395.585 C 356.500 398.831, 356.132 399.552, 354.347 399.807 C 352.016 400.139, 349 396.784, 349 393.859 C 349 391.282, 355.372 387.793, 359.439 388.143 C 361.339 388.307, 363.196 388.137, 363.567 387.766 C 364.278 387.056, 358.310 378.949, 357.166 379.071 C 356.800 379.110, 352.675 382.061, 348 385.629 M 164.870 397.250 C 164.798 397.387, 164.646 399.525, 164.531 402 C 164.246 408.158, 156.154 422.493, 152.437 423.427 C 150.500 423.913, 149.947 424.614, 150.185 426.285 C 150.593 429.151, 159.270 435, 163.113 435 C 166.292 435, 166.462 434.732, 165.006 432.011 C 164.227 430.555, 164.905 428.573, 168.147 422.827 C 174.133 412.220, 176.347 409.015, 177.691 409.007 C 180.056 408.993, 180.163 406.802, 177.916 404.410 C 174.392 400.660, 165.606 395.838, 164.870 397.250 M 320 402.752 C 316.258 404.621, 314.467 409, 317.445 409 C 319.108 409, 322.990 414.511, 322.996 416.880 C 323.002 419.135, 315.162 417.692, 307.026 413.943 C 299.798 410.611, 299.798 410.611, 295.399 412.944 C 290.349 415.623, 289.520 418.591, 293.540 419.599 C 296.392 420.315, 299.017 424.758, 302.601 434.939 C 304.272 439.686, 304.604 441.871, 303.865 443.253 C 301.390 447.876, 307.941 449.234, 313.896 445.333 C 316.396 443.694, 316.396 443.694, 313.330 441.097 C 307.909 436.505, 305.813 430.026, 309.327 428.718 C 309.972 428.478, 315.544 430.299, 321.709 432.764 C 332.268 436.986, 337.597 437.761, 335.274 434.738 C 334.750 434.057, 332.375 427.933, 329.995 421.130 C 326.581 411.368, 325.901 408.388, 326.771 406.995 C 328.215 404.682, 327.209 401, 325.133 401.002 C 324.235 401.002, 321.925 401.790, 320 402.752 M 211.085 415.583 C 202.435 418.137, 197.365 426.329, 198.200 436.402 C 199.040 446.525, 206.676 452.971, 218.017 453.131 C 224.797 453.226, 228.200 451.577, 230.846 446.912 C 231.756 445.307, 233.287 443.741, 234.250 443.430 C 236.724 442.632, 236.439 441.547, 232.995 438.649 C 230.075 436.192, 223.198 434.434, 219.367 435.164 C 216.690 435.675, 216.399 439.608, 218.939 440.968 C 221.568 442.374, 221.578 444.620, 218.962 446.020 C 211.594 449.964, 206.338 435.661, 211.868 426.714 C 215.691 420.528, 221.994 420.427, 226.110 426.485 C 230.392 432.788, 234.634 432.369, 233.576 425.749 C 232.591 419.592, 231.377 418, 227.665 418 C 225.869 418, 223.915 417.515, 223.322 416.922 C 221.289 414.889, 215.558 414.262, 211.085 415.583 M 259.975 419.565 C 259.439 420.976, 259 422.663, 259 423.315 C 259 423.967, 257.224 430.105, 255.054 436.955 C 252.299 445.654, 250.429 449.922, 248.854 451.110 C 246.934 452.558, 246.795 453.049, 247.922 454.406 C 249.625 456.458, 256.949 456.517, 259.559 454.499 C 261.386 453.086, 261.398 452.937, 259.750 451.950 C 257.569 450.642, 257.467 447.418, 259.582 446.607 C 260.452 446.273, 263.377 446, 266.082 446 C 271.068 446, 272.343 447.257, 269.867 449.733 C 269.244 450.356, 269.027 451.628, 269.385 452.560 C 269.943 454.015, 271.172 454.189, 278.054 453.791 C 288.132 453.207, 289.445 452.118, 285.335 447.752 C 283.651 445.963, 279.907 439.923, 277.014 434.329 C 274.122 428.736, 270.428 422.548, 268.805 420.579 C 265.169 416.168, 261.430 415.739, 259.975 419.565 M 261.639 434.428 C 258.820 438.731, 259.439 440.192, 263.750 439.413 C 268.595 438.537, 268.722 438.374, 266.973 435.273 C 264.958 431.699, 263.571 431.479, 261.639 434.428 M 238.264 499.718 C 239.784 499.947, 242.034 499.941, 243.264 499.704 C 244.494 499.467, 243.250 499.279, 240.500 499.286 C 237.750 499.294, 236.744 499.488, 238.264 499.718 M 256.750 499.706 C 257.988 499.944, 260.012 499.944, 261.250 499.706 C 262.488 499.467, 261.475 499.272, 259 499.272 C 256.525 499.272, 255.512 499.467, 256.750 499.706" stroke="none" fill="#8615ad" fill-rule="evenodd"/></svg>